<svg xmlns="http://www.w3.org/2000/svg" version="1.1" xmlns:xlink="http://www.w3.org/1999/xlink" xmlns:svgjs="http://svgjs.com/svgjs" width="12.6251mm" height="16.0613mm"><svg xmlns="http://www.w3.org/2000/svg" xml:space="preserve" width="12.6251mm" height="16.0613mm" style="shape-rendering:geometricPrecision; text-rendering:geometricPrecision; image-rendering:optimizeQuality; fill-rule:evenodd; clip-rule:evenodd" viewBox="0 0 0.366626 0.466412" xmlns:xlink="http://www.w3.org/1999/xlink">
 <defs>
  <style type="text/css">
   
    .str1 {stroke:#2B2A29;stroke-width:0.0058079}
    .str0 {stroke:#2B2A29;stroke-width:0.00768385}
    .fil0 {fill:none}
    .fil1 {fill:#1C1B17}
   
  </style>
 </defs>
 <g id="SvgjsG1006">
  <metadata id="SvgjsMetadata1005"></metadata>
  <g id="SvgjsG1004">
   <path id="SvgjsPath1003" class="fil0 str0" d="M0.353379 0.313873c-0.00562495,0.00273842 -0.0112499,0.00547685 -0.015025,0.00861021 -0.00377223,0.00313336 -0.00569464,0.00665875 -0.00509643,0.0102393 0.000601117,0.00358057 0.00371996,0.00721631 0.00749799,0.00883381 0.00378094,0.0016204 0.00821817,0.00122256 0.0116245,-0.00131839 0.00340924,-0.00253805 0.00578466,-0.00722502 0.00758221,-0.0121385 0.00179754,-0.00491348 0.0030172,-0.0100535 0.0027965,-0.0140871 -0.0002207,-0.00403358 -0.00188176,-0.00696076 -0.0074283,-0.00646419 -0.00554654,0.000493671 -0.0149815,0.004414 -0.0327246,0.0185766 -0.017746,0.0141655 -0.0438002,0.0385789 -0.066875,0.0603498 -0.0230748,0.021768 -0.0431701,0.0408963 -0.0538769,0.0524772 -0.0107069,0.011578 -0.0120252,0.0156116 -0.0124202,0.0190005 -0.000397841,0.00338891 0.000127774,0.00613895 0.00618251,0.0036793 0.00605764,-0.00245674 0.0176415,-0.0101203 0.029658,-0.020891 0.0120165,-0.0107678 0.0244658,-0.02464 0.0346093,-0.0388722 0.0101435,-0.0142322 0.0179842,-0.0288246 0.031049,-0.0550908 0.0130678,-0.0262633 0.0313597,-0.0642034 0.042206,-0.104847 0.0108462,-0.0406437 0.0142497,-0.0839967 0.00825592,-0.12275 -0.00599665,-0.0387532 -0.0213876,-0.0729094 -0.0342317,-0.0928828 -0.0128471,-0.0199705 -0.0231503,-0.0257609 -0.0394124,-0.0121182 -0.0162621,0.0136398 -0.0384831,0.0467129 -0.0567606,0.0750583 -0.0182745,0.0283454 -0.0326026,0.0519603 -0.0346789,0.0786738 -0.00207632,0.0267163 0.00809621,0.0565312 0.0143949,0.0749422 0.00629866,0.0184139 0.00872636,0.025427 0.00650775,0.0222849 -0.00221862,-0.00314207 -0.00908065,-0.0164392 -0.0169591,-0.0263098 -0.00787841,-0.00986762 -0.0167703,-0.0163057 -0.0244687,-0.0105704 -0.00770127,0.0057382 -0.014209,0.0236527 -0.0175573,0.0377891 -0.00334825,0.0141364 -0.00354282,0.0244977 0.00701884,0.0369411 0.0105646,0.0124434 0.0318824,0.0269719 0.0461786,0.0374029 0.0142961,0.0104339 0.0215705,0.0167732 0.0265189,0.0205222 0.00494833,0.0037519 0.00756769,0.00491638 0.00957141,0.00543619 0.00200372,0.000519807 0.00338891,0.000394937 0.000595309,-0.00270938 -0.0027936,-0.00310432 -0.00976598,-0.009191 -0.0218987,-0.0165322 -0.0121327,-0.00734118 -0.0294257,-0.0159369 -0.0470701,-0.0169155 -0.0176444,-0.00097863 -0.0356431,0.0056627 -0.0508278,0.0124696 -0.0151876,0.00680685 -0.0275643,0.013785 -0.0429058,0.019532 -0.0153387,0.00574401 -0.0336422,0.0102596 -0.0430394,0.012365 -0.00939718,0.00210536 -0.00988794,0.00180045 -0.00630447,0.00545652 0.00358347,0.00365317 0.0112383,0.0112644 0.0222384,0.0177518 0.0110031,0.00648452 0.0253544,0.0118481 0.04272,0.016689 0.0173656,0.00484088 0.0377455,0.00916196 0.0599317,0.00854632 0.0221833,-0.000615637 0.0461757,-0.00616799 0.0654143,-0.0145372 0.0192416,-0.00837208 0.0337294,-0.0195639 0.0421247,-0.0273029"></path>
   <path id="SvgjsPath1002" class="fil1 str1" d="M0.288269 0.00753865c0.00182368,-0.000557558 0.00153909,-0.00189918 -0.00112673,-0.00297655 -0.00266292,-0.00108027 -0.00770998,-0.00189047 -0.0120862,-0.00160008 -0.00437915,0.000290395 -0.0080904,0.00168139 -0.0122924,0.00347893 -0.00420492,0.00179754 -0.0089006,0.00399874 -0.0145255,0.00849405 -0.00562495,0.00449241 -0.0121763,0.0112789 -0.0184981,0.0195058 -0.00631899,0.00822688 -0.0124086,0.0178941 -0.0189018,0.0280057 -0.00649323,0.0101115 -0.013393,0.0206645 -0.0208852,0.0333315 -0.00748928,0.012667 -0.015571,0.0274452 -0.0203247,0.0401529 -0.00475667,0.0127048 -0.00618251,0.0233361 -0.00611571,0.0331718 6.96948e-005,0.00983858 0.00163492,0.0188844 0.00369382,0.0272361 0.002056,0.00834885 0.00460857,0.0160037 0.00785518,0.0230748 0.00324952,0.00707402 0.00719018,0.0135701 0.011308,0.0213963 0.0041178,0.00782904 0.00840693,0.016991 0.00848824,0.0155535 8.13105e-005,-0.00143745 -0.0040452,-0.0134714 -0.00680105,-0.021797 -0.00275294,-0.00832562 -0.00413813,-0.0129429 -0.00538392,-0.017534 -0.00124289,-0.00459405 -0.00234929,-0.00916196 -0.00334825,-0.0143716 -0.000998958,-0.00520678 -0.00189337,-0.0110524 -0.00241608,-0.0152893 -0.000525615,-0.00423686 -0.000682428,-0.00686784 -0.000720179,-0.00984438 -3.77513e-005,-0.00297364 4.06553e-005,-0.00629576 0.000270067,-0.0094117 0.000226508,-0.00311884 0.000601117,-0.00603731 0.00144036,-0.00997797 0.000839241,-0.00394066 0.00214021,-0.00890641 0.00343247,-0.0130271 0.00128935,-0.00412361 0.00256999,-0.00740507 0.00520968,-0.0128906 0.00263969,-0.00548265 0.00664423,-0.0131694 0.0106401,-0.020226 0.00399583,-0.00705369 0.00798586,-0.0134801 0.012034,-0.0198456 0.00405101,-0.00636836 0.00816009,-0.0126757 0.0128529,-0.0196772 0.00469278,-0.00700142 0.00996925,-0.014694 0.0147927,-0.021434 0.00482346,-0.00674297 0.009191,-0.0125334 0.0132769,-0.0175921 0.00408295,-0.00505868 0.00787841,-0.00938846 0.0113602,-0.0129342 0.00348183,-0.00354862 0.00665004,-0.00631318 0.00944364,-0.00832852 0.0027936,-0.00201534 0.00521549,-0.00328146 0.00839241,-0.00380127 0.00317692,-0.000516903 0.00710886,-0.000284587 0.00893545,-0.000842145zm-0.0972097 0.24714c0.000618541,0.000528519 -0.00151586,-0.00376932 -0.0036764,-0.00709144 -0.00216054,-0.00332212 -0.00435011,-0.0056656 -0.00626091,-0.0083837 -0.0019137,-0.00271519 -0.00355153,-0.0058079 -0.00564818,-0.00837789 -0.00209375,-0.00256709 -0.00464632,-0.00461147 -0.00699271,-0.00609829 -0.00234929,-0.00148392 -0.00449531,-0.00241318 -0.00733537,-0.0026455 -0.00284297,-0.000232316 -0.00637997,0.000232316 -0.00953947,0.0017685 -0.0031595,0.00153619 -0.00594438,0.00414684 -0.00837789,0.00753865 -0.00243641,0.00339181 -0.00452435,0.00756769 -0.0060315,0.0112499 -0.00150715,0.00368221 -0.00243351,0.00687074 -0.00362413,0.0107272 -0.00118771,0.00385354 -0.00263678,0.00837789 -0.00356605,0.0119439 -0.000926359,0.00356605 -0.00133291,0.00617379 -0.00130387,0.00924907 2.90395e-005,0.00307238 0.000493671,0.00660939 0.0011006,0.009856 0.000609829,0.00324661 0.00136486,0.00620574 0.00258161,0.00893835 0.00121675,0.00272971 0.00289814,0.00523872 0.00563947,0.00876992 0.00273842,0.0035283 0.00653679,0.00808169 0.0128296,0.0130591 0.00628995,0.00498027 0.0150744,0.0103874 0.0186259,0.0124812 0.00355153,0.00209665 0.00187014,0.000876992 -6.67908e-005,-0.00104542 -0.00193403,-0.00191951 -0.00412651,-0.00454758 -0.00733247,-0.00768675 -0.00320886,-0.00314207 -0.00743411,-0.00680105 -0.0108288,-0.0100796 -0.00339472,-0.00327856 -0.00596181,-0.0061767 -0.00789583,-0.00874088 -0.00193403,-0.00256419 -0.003235,-0.00479732 -0.00432398,-0.00800618 -0.00108898,-0.00320596 -0.00196597,-0.00739055 -0.00206471,-0.0118975 -9.87342e-005,-0.00450402 0.00058079,-0.00933329 0.00245093,-0.016146 0.00186724,-0.00681266 0.0049251,-0.0156116 0.00769837,-0.0217854 0.00277037,-0.00617089 0.00525615,-0.00971661 0.00741959,-0.0119527 0.00216344,-0.00223894 0.00400745,-0.0031653 0.00572368,-0.00357186 0.00171623,-0.000406553 0.0033076,-0.000293299 0.00484088,0.000104542 0.00153619,0.000400745 0.0030172,0.00108898 0.00610991,0.0039 0.0030927,0.00281102 0.0077942,0.00775064 0.0118307,0.0128935 0.00403358,0.0051458 0.00739926,0.0105007 0.0080178,0.0110292zm-0.0194216 0.0747273c-0.000229412,-0.000789874 -0.00944945,-0.00241318 -0.0162621,-0.00357476 -0.00681266,-0.00115868 -0.011218,-0.00185562 -0.0166687,-0.00173946 -0.00545071,0.000116158 -0.0119468,0.00104542 -0.0172785,0.00266873 -0.00533455,0.00162331 -0.00951043,0.00394356 -0.014148,0.00637707 -0.00464051,0.00243641 -0.00974275,0.00498608 -0.0143804,0.00707402 -0.00464051,0.00208794 -0.00881348,0.00371125 -0.0165844,0.00614766 -0.00777096,0.00243351 -0.0191341,0.00568303 -0.0275991,0.00788422 -0.00846791,0.0022041 -0.0140348,0.00336568 -0.0206442,0.00487282 -0.00660939,0.00150715 -0.0142642,0.00336277 -0.0191138,0.00461437 -0.00484959,0.0012516 -0.00689978,0.00190209 -0.0057382,0.00481475 0.00115868,0.00291556 0.00552621,0.0080933 0.0077971,0.0103206 0.00226798,0.00222442 0.00244222,0.00150134 0.00654259,-0.000333954 0.00409747,-0.0018353 0.0121211,-0.0047799 0.0196626,-0.00730053 0.00753865,-0.00252063 0.0145952,-0.00462018 0.0238356,-0.00811944 0.00924036,-0.00349926 0.0206674,-0.00839822 0.0283512,-0.0117871 0.00768385,-0.00338891 0.0116216,-0.00526486 0.0182716,-0.00799457 0.00664714,-0.00272681 0.0160037,-0.00630738 0.0242334,-0.00865377 0.00822688,-0.00234639 0.0153299,-0.0034557 0.0232606,-0.00399002 0.00793068,-0.000534326 0.0166919,-0.000490767 0.0164625,-0.00128064z"></path>
   <path id="SvgjsPath1001" class="fil0 str0" d="M0.353379 0.313873c-0.00562495,0.00273842 -0.0112499,0.00547685 -0.015025,0.00861021 -0.00377223,0.00313336 -0.00569464,0.00665875 -0.00509643,0.0102393 0.000601117,0.00358057 0.00371996,0.00721631 0.00749799,0.00883381 0.00378094,0.0016204 0.00821817,0.00122256 0.0116245,-0.00131839 0.00340924,-0.00253805 0.00578466,-0.00722502 0.00758221,-0.0121385 0.00179754,-0.00491348 0.0030172,-0.0100535 0.0027965,-0.0140871 -0.0002207,-0.00403358 -0.00188176,-0.00696076 -0.0074283,-0.00646419 -0.00554654,0.000493671 -0.0149815,0.004414 -0.0327246,0.0185766 -0.017746,0.0141655 -0.0438002,0.0385789 -0.066875,0.0603498 -0.0230748,0.021768 -0.0431701,0.0408963 -0.0538769,0.0524772 -0.0107069,0.011578 -0.0120252,0.0156116 -0.0124202,0.0190005 -0.000397841,0.00338891 0.000127774,0.00613895 0.00618251,0.0036793 0.00605764,-0.00245674 0.0176415,-0.0101203 0.029658,-0.020891 0.0120165,-0.0107678 0.0244658,-0.02464 0.0346093,-0.0388722 0.0101435,-0.0142322 0.0179842,-0.0288246 0.031049,-0.0550908 0.0130678,-0.0262633 0.0313597,-0.0642034 0.042206,-0.104847 0.0108462,-0.0406437 0.0142497,-0.0839967 0.00825592,-0.12275 -0.00599665,-0.0387532 -0.0213876,-0.0729094 -0.0342317,-0.0928828 -0.0128471,-0.0199705 -0.0231503,-0.0257609 -0.0394124,-0.0121182 -0.0162621,0.0136398 -0.0384831,0.0467129 -0.0567606,0.0750583 -0.0182745,0.0283454 -0.0326026,0.0519603 -0.0346789,0.0786738 -0.00207632,0.0267163 0.00809621,0.0565312 0.0143949,0.0749422 0.00629866,0.0184139 0.00872636,0.025427 0.00650775,0.0222849 -0.00221862,-0.00314207 -0.00908065,-0.0164392 -0.0169591,-0.0263098 -0.00787841,-0.00986762 -0.0167703,-0.0163057 -0.0244687,-0.0105704 -0.00770127,0.0057382 -0.014209,0.0236527 -0.0175573,0.0377891 -0.00334825,0.0141364 -0.00354282,0.0244977 0.00701884,0.0369411 0.0105646,0.0124434 0.0318824,0.0269719 0.0461786,0.0374029 0.0142961,0.0104339 0.0215705,0.0167732 0.0265189,0.0205222 0.00494833,0.0037519 0.00756769,0.00491638 0.00957141,0.00543619 0.00200372,0.000519807 0.00338891,0.000394937 0.000595309,-0.00270938 -0.0027936,-0.00310432 -0.00976598,-0.009191 -0.0218987,-0.0165322 -0.0121327,-0.00734118 -0.0294257,-0.0159369 -0.0470701,-0.0169155 -0.0176444,-0.00097863 -0.0356431,0.0056627 -0.0508278,0.0124696 -0.0151876,0.00680685 -0.0275643,0.013785 -0.0429058,0.019532 -0.0153387,0.00574401 -0.0336422,0.0102596 -0.0430394,0.012365 -0.00939718,0.00210536 -0.00988794,0.00180045 -0.00630447,0.00545652 0.00358347,0.00365317 0.0112383,0.0112644 0.0222384,0.0177518 0.0110031,0.00648452 0.0253544,0.0118481 0.04272,0.016689 0.0173656,0.00484088 0.0377455,0.00916196 0.0599317,0.00854632 0.0221833,-0.000615637 0.0461757,-0.00616799 0.0654143,-0.0145372 0.0192416,-0.00837208 0.0337294,-0.0195639 0.0421247,-0.0273029"></path>
   <path id="SvgjsPath1000" class="fil1 str1" d="M0.288269 0.00753865c0.00182368,-0.000557558 0.00153909,-0.00189918 -0.00112673,-0.00297655 -0.00266292,-0.00108027 -0.00770998,-0.00189047 -0.0120862,-0.00160008 -0.00437915,0.000290395 -0.0080904,0.00168139 -0.0122924,0.00347893 -0.00420492,0.00179754 -0.0089006,0.00399874 -0.0145255,0.00849405 -0.00562495,0.00449241 -0.0121763,0.0112789 -0.0184981,0.0195058 -0.00631899,0.00822688 -0.0124086,0.0178941 -0.0189018,0.0280057 -0.00649323,0.0101115 -0.013393,0.0206645 -0.0208852,0.0333315 -0.00748928,0.012667 -0.015571,0.0274452 -0.0203247,0.0401529 -0.00475667,0.0127048 -0.00618251,0.0233361 -0.00611571,0.0331718 6.96948e-005,0.00983858 0.00163492,0.0188844 0.00369382,0.0272361 0.002056,0.00834885 0.00460857,0.0160037 0.00785518,0.0230748 0.00324952,0.00707402 0.00719018,0.0135701 0.011308,0.0213963 0.0041178,0.00782904 0.00840693,0.016991 0.00848824,0.0155535 8.13105e-005,-0.00143745 -0.0040452,-0.0134714 -0.00680105,-0.021797 -0.00275294,-0.00832562 -0.00413813,-0.0129429 -0.00538392,-0.017534 -0.00124289,-0.00459405 -0.00234929,-0.00916196 -0.00334825,-0.0143716 -0.000998958,-0.00520678 -0.00189337,-0.0110524 -0.00241608,-0.0152893 -0.000525615,-0.00423686 -0.000682428,-0.00686784 -0.000720179,-0.00984438 -3.77513e-005,-0.00297364 4.06553e-005,-0.00629576 0.000270067,-0.0094117 0.000226508,-0.00311884 0.000601117,-0.00603731 0.00144036,-0.00997797 0.000839241,-0.00394066 0.00214021,-0.00890641 0.00343247,-0.0130271 0.00128935,-0.00412361 0.00256999,-0.00740507 0.00520968,-0.0128906 0.00263969,-0.00548265 0.00664423,-0.0131694 0.0106401,-0.020226 0.00399583,-0.00705369 0.00798586,-0.0134801 0.012034,-0.0198456 0.00405101,-0.00636836 0.00816009,-0.0126757 0.0128529,-0.0196772 0.00469278,-0.00700142 0.00996925,-0.014694 0.0147927,-0.021434 0.00482346,-0.00674297 0.009191,-0.0125334 0.0132769,-0.0175921 0.00408295,-0.00505868 0.00787841,-0.00938846 0.0113602,-0.0129342 0.00348183,-0.00354862 0.00665004,-0.00631318 0.00944364,-0.00832852 0.0027936,-0.00201534 0.00521549,-0.00328146 0.00839241,-0.00380127 0.00317692,-0.000516903 0.00710886,-0.000284587 0.00893545,-0.000842145zm-0.0972097 0.24714c0.000618541,0.000528519 -0.00151586,-0.00376932 -0.0036764,-0.00709144 -0.00216054,-0.00332212 -0.00435011,-0.0056656 -0.00626091,-0.0083837 -0.0019137,-0.00271519 -0.00355153,-0.0058079 -0.00564818,-0.00837789 -0.00209375,-0.00256709 -0.00464632,-0.00461147 -0.00699271,-0.00609829 -0.00234929,-0.00148392 -0.00449531,-0.00241318 -0.00733537,-0.0026455 -0.00284297,-0.000232316 -0.00637997,0.000232316 -0.00953947,0.0017685 -0.0031595,0.00153619 -0.00594438,0.00414684 -0.00837789,0.00753865 -0.00243641,0.00339181 -0.00452435,0.00756769 -0.0060315,0.0112499 -0.00150715,0.00368221 -0.00243351,0.00687074 -0.00362413,0.0107272 -0.00118771,0.00385354 -0.00263678,0.00837789 -0.00356605,0.0119439 -0.000926359,0.00356605 -0.00133291,0.00617379 -0.00130387,0.00924907 2.90395e-005,0.00307238 0.000493671,0.00660939 0.0011006,0.009856 0.000609829,0.00324661 0.00136486,0.00620574 0.00258161,0.00893835 0.00121675,0.00272971 0.00289814,0.00523872 0.00563947,0.00876992 0.00273842,0.0035283 0.00653679,0.00808169 0.0128296,0.0130591 0.00628995,0.00498027 0.0150744,0.0103874 0.0186259,0.0124812 0.00355153,0.00209665 0.00187014,0.000876992 -6.67908e-005,-0.00104542 -0.00193403,-0.00191951 -0.00412651,-0.00454758 -0.00733247,-0.00768675 -0.00320886,-0.00314207 -0.00743411,-0.00680105 -0.0108288,-0.0100796 -0.00339472,-0.00327856 -0.00596181,-0.0061767 -0.00789583,-0.00874088 -0.00193403,-0.00256419 -0.003235,-0.00479732 -0.00432398,-0.00800618 -0.00108898,-0.00320596 -0.00196597,-0.00739055 -0.00206471,-0.0118975 -9.87342e-005,-0.00450402 0.00058079,-0.00933329 0.00245093,-0.016146 0.00186724,-0.00681266 0.0049251,-0.0156116 0.00769837,-0.0217854 0.00277037,-0.00617089 0.00525615,-0.00971661 0.00741959,-0.0119527 0.00216344,-0.00223894 0.00400745,-0.0031653 0.00572368,-0.00357186 0.00171623,-0.000406553 0.0033076,-0.000293299 0.00484088,0.000104542 0.00153619,0.000400745 0.0030172,0.00108898 0.00610991,0.0039 0.0030927,0.00281102 0.0077942,0.00775064 0.0118307,0.0128935 0.00403358,0.0051458 0.00739926,0.0105007 0.0080178,0.0110292zm-0.0194216 0.0747273c-0.000229412,-0.000789874 -0.00944945,-0.00241318 -0.0162621,-0.00357476 -0.00681266,-0.00115868 -0.011218,-0.00185562 -0.0166687,-0.00173946 -0.00545071,0.000116158 -0.0119468,0.00104542 -0.0172785,0.00266873 -0.00533455,0.00162331 -0.00951043,0.00394356 -0.014148,0.00637707 -0.00464051,0.00243641 -0.00974275,0.00498608 -0.0143804,0.00707402 -0.00464051,0.00208794 -0.00881348,0.00371125 -0.0165844,0.00614766 -0.00777096,0.00243351 -0.0191341,0.00568303 -0.0275991,0.00788422 -0.00846791,0.0022041 -0.0140348,0.00336568 -0.0206442,0.00487282 -0.00660939,0.00150715 -0.0142642,0.00336277 -0.0191138,0.00461437 -0.00484959,0.0012516 -0.00689978,0.00190209 -0.0057382,0.00481475 0.00115868,0.00291556 0.00552621,0.0080933 0.0077971,0.0103206 0.00226798,0.00222442 0.00244222,0.00150134 0.00654259,-0.000333954 0.00409747,-0.0018353 0.0121211,-0.0047799 0.0196626,-0.00730053 0.00753865,-0.00252063 0.0145952,-0.00462018 0.0238356,-0.00811944 0.00924036,-0.00349926 0.0206674,-0.00839822 0.0283512,-0.0117871 0.00768385,-0.00338891 0.0116216,-0.00526486 0.0182716,-0.00799457 0.00664714,-0.00272681 0.0160037,-0.00630738 0.0242334,-0.00865377 0.00822688,-0.00234639 0.0153299,-0.0034557 0.0232606,-0.00399002 0.00793068,-0.000534326 0.0166919,-0.000490767 0.0164625,-0.00128064z"></path>
  </g>
 </g>
</svg><style>@media (prefers-color-scheme: light) { :root { filter: none; } }
@media (prefers-color-scheme: dark) { :root { filter: contrast(0.8333333333333334) brightness(1.7); } }
</style></svg>