<?xml version="1.0" encoding="UTF-8"?>
<!DOCTYPE svg PUBLIC "-//W3C//DTD SVG 1.1//EN" "http://www.w3.org/Graphics/SVG/1.1/DTD/svg11.dtd">
<!-- Creator: CorelDRAW -->
<svg xmlns="http://www.w3.org/2000/svg" xml:space="preserve" width="33.5874mm" height="13.911mm" style="shape-rendering:geometricPrecision; text-rendering:geometricPrecision; image-rendering:optimizeQuality; fill-rule:evenodd; clip-rule:evenodd"
viewBox="0 0 2.73803 1.13402"
 xmlns:xlink="http://www.w3.org/1999/xlink">
 <defs>
  <style type="text/css">
   <![CDATA[
    .fil0 {fill:#2B2A29;fill-rule:nonzero}
   ]]>
  </style>
 </defs>
 <g id="Warstwa_x0020_1">
  <metadata id="CorelCorpID_0Corel-Layer"/>
  <path class="fil0" d="M0.635779 0.482759c0,0.0109318 0.000146735,0.0247412 0.000448357,0.0414445 0.000309774,0.0166952 0.00136953,0.0346132 0.00319557,0.0537377 0.00181789,0.0191326 0.00470368,0.038412 0.00864922,0.0578381 0.00394555,0.0194343 0.00941551,0.0368957 0.0163936,0.0523763 0.00698622,0.0154887 0.0157903,0.0280835 0.0264205,0.0378006 0.010622,0.00971713 0.0238282,0.0145757 0.0396185,0.0145757 0.0145757,0 0.0295997,-0.00531507 0.0450885,-0.0159452 0.0154806,-0.010622 0.0303579,-0.0233716 0.0446319,-0.038249 0.0142659,-0.0148773 0.0270237,-0.0306676 0.0382571,-0.047371 0.0112334,-0.0166952 0.019581,-0.031116 0.0250428,-0.0432624 0.00182604,-0.00364392 0.00349719,-0.00728785 0.00501345,-0.0109318 0.00151626,-0.00364392 0.00227439,-0.00758947 0.00227439,-0.0118366 0,-0.00364392 -0.001663,-0.0066846 -0.0050053,-0.00911388 -0.0033423,-0.00242928 -0.00652971,-0.00364392 -0.00956224,-0.00364392 -0.00485856,0 -0.008959,0.00167115 -0.0123013,0.00501345 -0.00333415,0.00333415 -0.00621994,0.00683134 -0.00864922,0.0104753 -0.00607321,0.00850249 -0.0129045,0.0191245 -0.020494,0.0318741 -0.00758947,0.0127578 -0.0157903,0.025051 -0.0245944,0.0368957 -0.00880411,0.0118366 -0.0185212,0.0220103 -0.0291514,0.0305128 -0.010622,0.00850249 -0.0223119,0.0127497 -0.0350616,0.0127497 -0.00911388,0 -0.0164017,-0.00455694 -0.0218635,-0.0136627 -0.00546996,-0.00910573 -0.00971713,-0.0198826 -0.0127497,-0.0323306 -0.00304068,-0.0124562 -0.00501345,-0.0249042 -0.00592647,-0.0373522 -0.000904867,-0.012448 -0.00136138,-0.0220103 -0.00136138,-0.0286867 0,-0.041901 0.00197277,-0.0831907 0.00591832,-0.123877 0.00394555,-0.0406864 0.00926062,-0.0813728 0.0159371,-0.122059 0.00242928,-0.0139643 0.00455694,-0.027627 0.00637483,-0.040988 0.00182604,-0.0133611 0.00273906,-0.0270237 0.00273906,-0.040988 0,-0.00789109 -0.000913019,-0.0162387 -0.00273906,-0.025051 -0.00181789,-0.00880411 -0.00789109,-0.0132062 -0.0182115,-0.0132062 -0.00728785,0 -0.0145757,0.00151626 -0.0218635,0.00455694 -0.00546181,0.00242928 -0.00986386,0.00621994 -0.0132062,0.0113883 -0.0033423,0.00516019 -0.00607321,0.0109236 -0.00820086,0.0173066 -0.00211951,0.00637483 -0.00379066,0.0129045 -0.0050053,0.019581 -0.00121464,0.00667645 -0.00242928,0.0127497 -0.00364392,0.0182196 -0.00364392,0.0163936 -0.00941551,0.0323306 -0.0173066,0.0478194 -0.00789109,0.0154806 -0.0151789,0.031116 -0.0218635,0.0469063 -0.0151789,0.0333986 -0.0306595,0.0661857 -0.0464498,0.0983696 -0.0157903,0.0321839 -0.0321839,0.0646776 -0.0491889,0.0974648 -0.011535,0.0218635 -0.0230782,0.0435722 -0.0346132,0.065126 -0.011535,0.0215619 -0.023983,0.0429608 -0.0373441,0.0642129 -0.00181789,0.00242928 -0.00410043,0.00577158 -0.00683134,0.0100269 -0.0027309,0.00424717 -0.00577158,0.00849434 -0.00910573,0.0127497 -0.0033423,0.00424717 -0.0066846,0.00789109 -0.0100188,0.0109318 -0.0033423,0.00303253 -0.00652971,0.00454879 -0.00957039,0.00454879 -0.00485856,0 -0.0083476,-0.0056167 -0.0104753,-0.0168501 -0.00211951,-0.0112334 -0.00364392,-0.023983 -0.00454879,-0.0382571 -0.000913019,-0.0142659 -0.00121464,-0.0280835 -0.000913019,-0.0414445 0.000301622,-0.0133529 0.000456509,-0.0218554 0.000456509,-0.0254993 0,-0.0607239 0.000758132,-0.120535 0.00227439,-0.179441 0.00151626,-0.058906 0.00228255,-0.118717 0.00228255,-0.179441 0,-0.00546181 -0.000154887,-0.0142659 -0.000456509,-0.0264123 -0.000309774,-0.0121464 -0.00106791,-0.0245944 -0.00228255,-0.0373441 -0.00121464,-0.0127578 -0.00333415,-0.0244396 -0.00637483,-0.0350697 -0.00303253,-0.0106301 -0.00728785,-0.0171517 -0.0127497,-0.019581 -0.00728785,-0.00364392 -0.0157903,-0.00546996 -0.0255075,-0.00546996 -0.00424717,0 -0.0103204,0.00121464 -0.0182115,0.00364392 -0.00789924,0.00242928 -0.0154887,0.0056167 -0.0227766,0.00956224 -0.00728785,0.0039537 -0.0136627,0.00850249 -0.0191245,0.0136627 -0.00546996,0.00516834 -0.00820086,0.0104753 -0.00820086,0.0159452 0,0.00242928 0.000301622,0.00424717 0.000913019,0.00546181 0.00424717,0.0121464 0.00698622,0.0244396 0.00820086,0.0368876 0.00121464,0.0124562 0.00181789,0.025051 0.00181789,0.0378006 0,0.018831 -0.0027309,0.0456998 -0.00820086,0.0806147 -0.00546181,0.0349148 -0.0133529,0.0727154 -0.0236814,0.113402 -0.0103204,0.0406864 -0.0227684,0.0822777 -0.0373441,0.12479 -0.0145757,0.0425043 -0.031116,0.081063 -0.0496372,0.115676 -0.0185212,0.0346132 -0.0385587,0.0628516 -0.0601207,0.0847069 -0.0215538,0.0218635 -0.0444771,0.0327953 -0.0687699,0.0327953 -0.00667645,0 -0.0132062,-0.000758132 -0.019581,-0.00227439 -0.00637483,-0.00152442 -0.0129045,-0.00228255 -0.019581,-0.00228255 -0.00485856,0 -0.008959,0.00182604 -0.0123013,0.00546996 -0.0033423,0.00364392 -0.0050053,0.00789109 -0.0050053,0.0127497 0,0.00546181 0.00136138,0.00971713 0.00409228,0.0127497 0.00273906,0.00304068 0.00622809,0.00546996 0.0104753,0.00728785 0.00425532,0.00182604 0.00880411,0.00288579 0.0136627,0.00318741 0.00485856,0.000301622 0.00941551,0.000456509 0.0136627,0.000456509 0.0255075,0 0.0487324,-0.00607321 0.0696829,-0.0182196 0.0209505,-0.0121383 0.040075,-0.0280835 0.0573816,-0.0478194 0.0173066,-0.0197359 0.0326404,-0.0423494 0.0460015,-0.0678569 0.0133611,-0.0255075 0.0251977,-0.0513084 0.0355262,-0.0774191 0.0103204,-0.0261189 0.0194261,-0.0517731 0.0273253,-0.0769707 0.00789109,-0.0251977 0.0148773,-0.0475177 0.0209505,-0.066952 0.000603245,-0.00121464 0.00121464,-0.00303253 0.00181789,-0.00546181 0.000611396,-0.00242928 0.00151626,-0.00364392 0.0027309,-0.00364392 0.00121464,0 0.00182604,0.00121464 0.00182604,0.00364392 0,0.00242928 0,0.00394555 0,0.00455694 0,0.0218554 0.000146735,0.0459933 0.000456509,0.0724138 0.000301622,0.0264123 0.00151626,0.0532812 0.00364392,0.0806065 0.00211951,0.0273253 0.00546181,0.0537377 0.0100188,0.0792451 0.00454879,0.0255075 0.0107769,0.0482759 0.018668,0.0683134 0.00425532,0.0103285 0.0104753,0.019581 0.0186761,0.0277819 0.00819271,0.00820086 0.0183664,0.0123013 0.0305128,0.0123013 0.0157903,0 0.0324855,-0.00850249 0.0500938,-0.0255075 0.0176164,-0.017005 0.0350697,-0.038412 0.0523763,-0.0642129 0.0173066,-0.0258091 0.0341567,-0.0537458 0.0505503,-0.0838021 0.0164017,-0.0300563 0.0311242,-0.057993 0.0441836,-0.0838021 0.0130513,-0.0258009 0.0241379,-0.0475096 0.0332437,-0.065126 0.00910573,-0.0176082 0.0148773,-0.0270156 0.0173066,-0.0282302 0.000603245,0.000603245 0.000913019,0.00151626 0.000913019,0.0027309zm0.209489 0.170327c0,0.0133611 0.00152442,0.0273253 0.00455694,0.041901 0.00303253,0.0145757 0.00789109,0.027627 0.0145757,0.0391701 0.00667645,0.011535 0.0156354,0.0210973 0.0268688,0.0286867 0.0112334,0.00758947 0.025051,0.0113883 0.0414445,0.0113883 0.0127497,0 0.0251977,-0.00227439 0.0373441,-0.00683134 0.0121464,-0.00455694 0.0233798,-0.0101736 0.0337002,-0.0168501 0.0176082,-0.011535 0.0324855,-0.0255075 0.0446319,-0.041901 0.0121464,-0.0163936 0.0221652,-0.0340018 0.0300644,-0.0528328 0.00789109,-0.0188229 0.0136627,-0.0384039 0.0172984,-0.058743 0.00364392,-0.0203473 0.00546996,-0.0405397 0.00546996,-0.0605772 0,-0.0139643 -0.00136953,-0.0282384 -0.00410043,-0.0428059 -0.0027309,-0.0145757 -0.00728785,-0.0279367 -0.0136627,-0.0400832 -0.00637483,-0.0121464 -0.0150322,-0.0221652 -0.0259558,-0.0300563 -0.0109318,-0.00789109 -0.0248961,-0.0118448 -0.041901,-0.0118448 -0.0273253,0 -0.0514633,0.00835575 -0.0724138,0.025051 -0.0209505,0.0167034 -0.0387136,0.0371974 -0.0532893,0.061482 -0.0145675,0.0242928 -0.0256542,0.0504035 -0.0332437,0.0783321 -0.00758947,0.0279367 -0.0113883,0.0534442 -0.0113883,0.0765142zm0.170335 -0.181259c0.00971713,0 0.0176082,0.00288579 0.0236814,0.00864922 0.00607321,0.00577158 0.0109318,0.0127578 0.0145757,0.0209505 0.00364392,0.00820086 0.00607321,0.0171599 0.00728785,0.026877 0.00121464,0.00970898 0.00181789,0.0182115 0.00181789,0.0254993 0,0.0139643 -0.00121464,0.0283933 -0.00364392,0.0432706 -0.00242928,0.0148773 -0.00621994,0.0292981 -0.0113883,0.0432624 -0.00516019,0.0139643 -0.0118366,0.0271705 -0.0200375,0.0396185 -0.00819271,0.012448 -0.0180647,0.0232331 -0.0295997,0.0323388 -0.00607321,0.00485856 -0.0126029,0.008959 -0.019581,0.0122931 -0.00698622,0.0033423 -0.014429,0.00501345 -0.02232,0.00501345 -0.00910573,0 -0.0166952,-0.00258417 -0.0227684,-0.00774436 -0.00607321,-0.00516019 -0.010785,-0.0113801 -0.0141192,-0.018668 -0.0033423,-0.00728785 -0.0056167,-0.0153338 -0.00683134,-0.0241379 -0.00121464,-0.00880411 -0.00182604,-0.0168501 -0.00182604,-0.0241379 0,-0.0139724 0.00228255,-0.031279 0.00683134,-0.0519198 0.00455694,-0.0206489 0.0112334,-0.0406864 0.0200375,-0.0601207 0.00881226,-0.0194261 0.0197359,-0.0361295 0.0327953,-0.0500938 0.0130513,-0.0139643 0.0280835,-0.0209505 0.0450885,-0.0209505zm0.351586 -0.146645c0.00364392,-0.000611396 0.00910573,-0.00182604 0.0163936,-0.00364392 0.00728785,-0.00182604 0.0148773,-0.00379881 0.0227766,-0.00592647 0.00789109,-0.00211951 0.0151789,-0.00424717 0.0218554,-0.00637483 0.0066846,-0.00211951 0.0112334,-0.00379066 0.0136627,-0.0050053 0.00364392,-0.00242928 0.00652971,-0.00471183 0.00865737,-0.00683134 0.00212766,-0.00212766 0.00318741,-0.0056167 0.00318741,-0.0104753 0,-0.00789924 -0.00425532,-0.0118448 -0.0127497,-0.0118448 -0.0103285,0 -0.0206489,0.000913019 -0.0309693,0.0027309 -0.0103285,0.00182604 -0.0206489,0.0033423 -0.0309693,0.00455694 0.00667645,-0.0230782 0.0116899,-0.0467596 0.015024,-0.0710443 0.0033423,-0.0242928 0.00501345,-0.0482759 0.00501345,-0.0719573 0,-0.0066846 -0.000301622,-0.0147306 -0.000913019,-0.0241379 -0.000603245,-0.00941551 -0.00227439,-0.0183745 -0.00501345,-0.0268688 -0.0027309,-0.00850249 -0.00683134,-0.0157903 -0.0122931,-0.0218635 -0.00546181,-0.00607321 -0.0130513,-0.00910573 -0.0227684,-0.00910573 -0.0212521,0 -0.0405397,0.00970898 -0.0578381,0.0291432 -0.0173066,0.0194343 -0.0326404,0.0426592 -0.0460015,0.0696829 -0.0133611,0.0270237 -0.0245944,0.0543491 -0.0337002,0.081976 -0.00911388,0.027627 -0.016092,0.0496372 -0.0209505,0.066039 -0.00971713,0.000603245 -0.0198908,0.0027309 -0.0305128,0.00637483 -0.0106301,0.00364392 -0.0159452,0.011535 -0.0159452,0.0236814 0,0.0145757 0.00728785,0.0218635 0.0218635,0.0218635 0.00667645,0 0.0130513,-0.000913019 0.0191245,-0.00273906 -0.00607321,0.0291514 -0.0101655,0.0587511 -0.0122931,0.0888155 -0.00212766,0.0300563 -0.00318741,0.0599576 -0.00318741,0.0897122 0,0.0115432 0.000603245,0.025964 0.00181789,0.0432706 0.00121464,0.0173066 0.0033423,0.0356729 0.00638298,0.0551072 0.00303253,0.0194343 0.00727969,0.0388604 0.0127497,0.0582946 0.00546181,0.0194343 0.0122931,0.0368876 0.020494,0.0523763 0.00819271,0.0154806 0.0182196,0.0280835 0.0300563,0.0378006 0.0118448,0.00970898 0.0256542,0.0145675 0.0414445,0.0145675 0.0182196,0 0.0367409,-0.00591832 0.0555637,-0.017755 0.0188229,-0.0118448 0.0367409,-0.0262656 0.0537377,-0.0432706 0.017005,-0.017005 0.0324855,-0.0350697 0.046458,-0.0541942 0.0139643,-0.0191326 0.0251977,-0.0359827 0.0337002,-0.0505503 0.00364392,-0.00607321 0.00698622,-0.0121464 0.0100188,-0.0182196 0.00303253,-0.00607321 0.00455694,-0.012448 0.00455694,-0.0191326 0,-0.00363577 -0.00121464,-0.00683134 -0.00364392,-0.00956224 -0.00242928,-0.0027309 -0.00546996,-0.00410043 -0.00911388,-0.00410043 -0.00485856,0 -0.00940735,0.00242928 -0.0136627,0.00728785 -0.00424717,0.00485856 -0.00758947,0.00941551 -0.0100188,0.0136627 -0.00667645,0.0109318 -0.0156354,0.0244477 -0.0268688,0.0405397 -0.0112334,0.016092 -0.0236814,0.0314176 -0.0373441,0.0459933 -0.0136627,0.0145757 -0.0279367,0.0271786 -0.0428141,0.0378006 -0.0148773,0.0106301 -0.0292981,0.0159452 -0.0432624,0.0159452 -0.0121464,0 -0.0220103,-0.00728785 -0.0295997,-0.0218635 -0.00759762,-0.0145757 -0.0133611,-0.0315807 -0.0173066,-0.0510068 -0.0039537,-0.0194343 -0.0066846,-0.0387136 -0.00820086,-0.0578381 -0.00151626,-0.0191326 -0.00227439,-0.0332518 -0.00227439,-0.0423575 0,-0.00242928 0,-0.00577158 0,-0.0100188 0,-0.00425532 0.000603245,-0.00758947 0.00181789,-0.0100188 0.00121464,-0.00304068 0.00318741,-0.00622809 0.00591832,-0.00956224 0.00273906,-0.0033423 0.00531507,-0.00652971 0.00774436,-0.00957039 0.00425532,-0.00607321 0.00850249,-0.0119915 0.0127497,-0.0177631 0.00425532,-0.00576343 0.00820086,-0.0119915 0.0118448,-0.018668 0.0151789,-0.0248961 0.0297546,-0.0514633 0.0437189,-0.0797016 0.0139724,-0.0282384 0.0245944,-0.0563218 0.0318823,-0.0842504zm-0.0109318 -0.222255c0.00242928,0 0.00425532,0.00121464 0.00546996,0.00364392 0.00121464,0.00242928 0.00211951,0.00516019 0.0027309,0.00820086 0.000603245,0.00303253 0.000913019,0.00607321 0.000913019,0.00910573 0,0.00304068 0,0.00516019 0,0.00637483 0,0.0242928 -0.00242928,0.0507051 -0.00728785,0.0792451 -0.00485856,0.02854 -0.0109318,0.0543491 -0.0182196,0.0774273 -0.0121464,0.00303253 -0.0245944,0.0050053 -0.0373441,0.00591832 -0.0127497,0.000913019 -0.0251977,0.00227439 -0.0373441,0.00410043 0.00121464,-0.00911388 0.00470368,-0.0242928 0.0104753,-0.045545 0.00576343,-0.0212521 0.0129045,-0.0429608 0.0213989,-0.065126 0.00850249,-0.0221652 0.017918,-0.0415994 0.0282384,-0.0582946 0.0103285,-0.0166952 0.0206489,-0.025051 0.0309693,-0.025051zm-0.0965517 0.243205c0.0103285,-0.00304068 0.0209505,-0.00501345 0.0318823,-0.00592647 0.0109318,-0.000904867 0.0218635,-0.00257602 0.0327953,-0.0050053 -0.00304068,0.0109318 -0.00759762,0.0235265 -0.0136708,0.0378006 -0.00606505,0.0142659 -0.0128964,0.0288416 -0.020494,0.0437189 -0.00758947,0.0148773 -0.0154806,0.0289965 -0.0236814,0.0423575 -0.00819271,0.0133529 -0.0156354,0.0242847 -0.0223119,0.0327872 0.00181789,-0.0242847 0.00348904,-0.0487324 0.0050053,-0.0733268 0.00152442,-0.0245863 0.00501345,-0.0487242 0.0104753,-0.0724056zm0.286011 0.787886c0.0145757,0 0.02854,-0.0027309 0.041901,-0.00819271 0.0133611,-0.00546996 0.0258091,-0.012448 0.0373441,-0.0209505 0.011535,-0.00850249 0.0223119,-0.0183745 0.0323388,-0.0296079 0.0100188,-0.0112334 0.018668,-0.0226135 0.0259558,-0.0341567 0.0224668,-0.0346132 0.0399283,-0.0719573 0.0523763,-0.112032 0.012448,-0.040075 0.0218554,-0.0812179 0.0282384,-0.123421 0.00637483,-0.0422027 0.0103204,-0.0847151 0.0118366,-0.127521 0.00151626,-0.0428141 0.00227439,-0.0842586 0.00227439,-0.124334 0,-0.00485856 0,-0.012448 0,-0.0227684 0,-0.0103285 -0.000448357,-0.0209505 -0.00136138,-0.0318823 -0.000913019,-0.0109318 -0.00242928,-0.0212521 -0.00455694,-0.0309693 -0.00212766,-0.00971713 -0.0050053,-0.0157903 -0.00864922,-0.0182196 -0.00607321,-0.00424717 -0.0121464,-0.00637483 -0.0182196,-0.00637483 -0.00728785,0 -0.0135078,0.00304068 -0.0186761,0.00911388 -0.00516019,0.00606505 -0.00986386,0.011535 -0.0141192,0.0163936 -0.0218554,0.0279286 -0.0432624,0.0560121 -0.0642129,0.0842504 -0.0209505,0.0282384 -0.0438738,0.0551072 -0.0687699,0.0806147 -0.00242928,0.00242928 -0.00652971,0.00637483 -0.0122931,0.0118366 -0.00577158,0.00546996 -0.0118448,0.0109318 -0.0182196,0.0164017 -0.00637483,0.00546181 -0.0126029,0.0103204 -0.0186761,0.0145675 -0.00606505,0.00425532 -0.0109236,0.00637483 -0.0145675,0.00637483 -0.00485856,0 -0.00758947,-0.00242113 -0.00820086,-0.00727969 -0.000603245,-0.00485856 -0.000913019,-0.00881226 -0.000913019,-0.0118448 0,-0.00850249 0.00136953,-0.0191245 0.00410043,-0.0318823 0.0027309,-0.0127497 0.00607321,-0.0261107 0.0100188,-0.040075 0.00394555,-0.0139643 0.00820086,-0.0273253 0.0127578,-0.040075 0.00454879,-0.0127578 0.0083476,-0.0230782 0.0113801,-0.0309693 0.00304068,-0.00728785 0.00698622,-0.0162468 0.0118448,-0.026877 0.00485856,-0.010622 0.00728785,-0.0198826 0.00728785,-0.0277737 0,-0.0103285 -0.00394555,-0.0191326 -0.0118448,-0.0264205 -0.00789109,-0.00728785 -0.017005,-0.0109318 -0.0273253,-0.0109318 -0.00850249,0 -0.0154806,0.00242928 -0.0209505,0.00728785 -0.00546181,0.00485856 -0.0100188,0.0109318 -0.0136627,0.0182196 -0.00303253,0.00546181 -0.00531507,0.0110785 -0.00683134,0.0168501 -0.00151626,0.00577158 -0.00318741,0.0116899 -0.0050053,0.0177631 -0.00850249,0.0261107 -0.0159452,0.0531344 -0.02232,0.081063 -0.00637483,0.0279367 -0.00956224,0.0555637 -0.00956224,0.0828891 0,0.00789924 0.000603245,0.0162468 0.00181789,0.025051 0.00121464,0.00880411 0.00364392,0.0166952 0.00728785,0.0236814 0.00364392,0.00698622 0.00865737,0.0127497 0.0150322,0.0173066 0.00637483,0.00455694 0.0147224,0.00683134 0.025051,0.00683134 0.0151789,0 0.0332437,-0.00743458 0.0541942,-0.0223119 0.0209505,-0.0148855 0.0417462,-0.0324937 0.062395,-0.0528328 0.0206407,-0.0203473 0.0396185,-0.040988 0.0569251,-0.0619385 0.0173066,-0.0209505 0.0295997,-0.0378006 0.0368876,-0.0505503 0.00182604,0.0473628 0.00273906,0.0944241 0.00273906,0.141184 0,0.00849434 0,0.0172984 0,0.0264123 0,0.00850249 -0.000309774,0.017005 -0.000913019,0.0254993 -0.0236814,0.0151871 -0.0493356,0.0340099 -0.0769707,0.0564767 -0.027627,0.0224668 -0.0534361,0.0469063 -0.0774191,0.0733268 -0.0239912,0.0264123 -0.0440287,0.0544958 -0.0601207,0.0842504 -0.016092,0.0297546 -0.0241379,0.0598109 -0.0241379,0.0901769 0,0.0121464 0.00136953,0.0241379 0.00410043,0.0359746 0.0027309,0.0118448 0.00713296,0.02232 0.0132062,0.0314258 0.00607321,0.00911388 0.0139643,0.0165485 0.0236814,0.02232 0.00971713,0.00576343 0.0215619,0.00864922 0.0355262,0.00864922zm0.157577 -0.36343c-0.00181789,0.0200375 -0.00516019,0.0423575 -0.0100188,0.066952 -0.00485856,0.0245863 -0.0107769,0.0493356 -0.0177631,0.0742317 -0.00697807,0.0248961 -0.0151789,0.0487324 -0.0245944,0.0715008 -0.00940735,0.0227766 -0.0201842,0.0420559 -0.0323306,0.0578381 -0.00425532,0.00546996 -0.00911388,0.0113883 -0.0145757,0.0177631 -0.00546181,0.00637483 -0.0113883,0.0123013 -0.0177631,0.0177631 -0.00637483,0.00546181 -0.0130513,0.0100188 -0.0200375,0.0136627 -0.00698622,0.00364392 -0.0141192,0.00546181 -0.021407,0.00546181 -0.00728785,0 -0.0132062,-0.00197277 -0.0177631,-0.00591832 -0.00454879,-0.00394555 -0.00819271,-0.00880411 -0.0109236,-0.0145757 -0.00273906,-0.00576343 -0.00455694,-0.0121383 -0.00546996,-0.0191245 -0.000913019,-0.00698622 -0.00136138,-0.0132062 -0.00136138,-0.0186761 0,-0.026714 0.00652156,-0.0528247 0.019581,-0.0783321 0.0130513,-0.0254993 0.0292981,-0.0496372 0.0487324,-0.0724138 0.0194261,-0.0227684 0.0403766,-0.0438738 0.0628434,-0.0632999 0.0224749,-0.0194343 0.0434173,-0.0370425 0.0628516,-0.0528328zm0.27508 0.0218635c0.0188229,0 0.0376457,-0.00592647 0.0564686,-0.0177631 0.0188229,-0.0118448 0.0367409,-0.0262656 0.0537458,-0.0432706 0.0169968,-0.0169968 0.0323306,-0.0352164 0.0459933,-0.0546507 0.0136627,-0.0194261 0.025051,-0.0364311 0.0341567,-0.0510068 0.00304068,-0.00485856 0.00607321,-0.0100188 0.00911388,-0.0154806 0.00303253,-0.00546996 0.00454879,-0.0112334 0.00454879,-0.0173066 0,-0.00425532 -0.000904867,-0.00804598 -0.0027309,-0.0113883 -0.00181789,-0.0033423 -0.00516019,-0.00501345 -0.0100188,-0.00501345 -0.00485856,0 -0.00864922,0.00121464 -0.0113883,0.00364392 -0.0027309,0.00242928 -0.00530692,0.00546996 -0.0077362,0.00911388 -0.00425532,0.00607321 -0.00820086,0.0122931 -0.0118448,0.018668 -0.00364392,0.00637483 -0.00758947,0.0126029 -0.0118448,0.0186761 -0.00606505,0.00850249 -0.014111,0.0191245 -0.0241298,0.0318823 -0.0100269,0.0127497 -0.0209505,0.0250428 -0.0327953,0.0368876 -0.0118366,0.0118366 -0.0241379,0.0218635 -0.0368876,0.0300563 -0.0127497,0.00820086 -0.0245944,0.0123013 -0.0355262,0.0123013 -0.0127497,0 -0.0227684,-0.00577158 -0.0300563,-0.0173066 -0.00728785,-0.0115432 -0.0130594,-0.0252058 -0.0173066,-0.040988 -0.00425532,-0.0157903 -0.00698622,-0.0317356 -0.00820086,-0.0478275 -0.00121464,-0.016092 -0.00181789,-0.0286867 -0.00181789,-0.0378006 0,-0.00546181 0.000146735,-0.0122931 0.000456509,-0.020494 0.000301622,-0.00819271 0.00136138,-0.0147224 0.00318741,-0.019581 0.00121464,-0.00424717 0.00348904,-0.00880411 0.00683134,-0.0136627 0.00333415,-0.00485856 0.00621994,-0.00910573 0.00864922,-0.0127497 0.00728785,-0.0121464 0.0147306,-0.0238363 0.02232,-0.0350697 0.00758947,-0.0112334 0.0147224,-0.0229233 0.021407,-0.0350697 0.0139643,-0.0248961 0.027627,-0.0531344 0.040988,-0.0847069 0.0133529,-0.0315807 0.0254993,-0.0640662 0.0364311,-0.0974648 0.0109318,-0.0333986 0.0197359,-0.0667971 0.0264123,-0.100196 0.0066846,-0.0333986 0.0100188,-0.0643678 0.0100188,-0.0929078 0,-0.00849434 -0.000904867,-0.0176082 -0.0027309,-0.0273253 -0.00181789,-0.00971713 -0.00470368,-0.018668 -0.00864922,-0.0268688 -0.00394555,-0.00819271 -0.00941551,-0.0148773 -0.0164017,-0.0200375 -0.00697807,-0.00516019 -0.0159371,-0.00774436 -0.0268688,-0.00774436 -0.0133529,0 -0.0265672,0.00485856 -0.0396185,0.0145757 -0.0130594,0.00971713 -0.0251977,0.0217087 -0.0364392,0.0359827 -0.0112334,0.0142659 -0.0210973,0.0289883 -0.0295997,0.0441754 -0.00850249,0.0151789 -0.0151789,0.0282302 -0.0200375,0.039162 -0.0255075,0.058906 -0.0434173,0.119475 -0.0537377,0.181715 -0.0103285,0.0622483 -0.0154887,0.125247 -0.0154887,0.189003 0,0.0115432 0.000456509,0.0267221 0.00136953,0.045545 0.000904867,0.0188229 0.00257602,0.0390152 0.0050053,0.0605772 0.00242928,0.0215538 0.00607321,0.0431075 0.0109318,0.0646694 0.00485856,0.0215538 0.011535,0.040988 0.0200375,0.0582946 0.00850249,0.0173066 0.0186761,0.0314258 0.0305128,0.0423494 0.0118448,0.0109318 0.0262656,0.0164017 0.0432706,0.0164017zm0.086533 -0.748732c0.00363577,0 0.00637483,0.00136953 0.00819271,0.00410043 0.00182604,0.00273906 0.00318741,0.00592647 0.00410043,0.00957039 0.000913019,0.00363577 0.00136953,0.00758947 0.00136953,0.0118366 0,0.00364392 0,0.00637483 0,0.00820086 0,0.0291432 -0.00455694,0.0613271 -0.0136627,0.0965517 -0.00911388,0.0352164 -0.0205022,0.0705878 -0.0341648,0.106114 -0.0136627,0.0355181 -0.0288416,0.0698296 -0.0455368,0.102927 -0.0167034,0.0330888 -0.0323388,0.0620853 -0.0469145,0.0869813 -0.000603245,-0.00485041 -0.000904867,-0.00910573 -0.000904867,-0.0127497 0,-0.00424717 0,-0.00880411 0,-0.0136627 0,-0.0437189 0.00530692,-0.0894106 0.0159371,-0.137083 0.0106301,-0.0476645 0.0223119,-0.0924513 0.0350697,-0.134352 0.00242928,-0.00728785 0.00591832,-0.0182196 0.0104753,-0.0327872 0.00454879,-0.0145757 0.0100188,-0.0288498 0.0163936,-0.0428141 0.00637483,-0.0139643 0.0138176,-0.0262656 0.0223119,-0.0368876 0.00850249,-0.0106301 0.0176164,-0.0159452 0.0273335,-0.0159452zm0.170327 0.725051c0.0248961,0 0.0488873,-0.00425532 0.0719573,-0.0127578 0.0230782,-0.00850249 0.0446319,-0.0198826 0.0646694,-0.0341567 0.0200457,-0.0142659 0.038412,-0.0308144 0.0551072,-0.0496372 0.0167034,-0.018831 0.0308225,-0.0385587 0.0423575,-0.0592076 0.00304068,-0.00485856 0.00516019,-0.00910573 0.00637483,-0.0127497 0.00121464,-0.00364392 0.00182604,-0.00850249 0.00182604,-0.0145757 0,-0.00304068 -0.00136953,-0.00546996 -0.00410043,-0.00728785 -0.0027309,-0.00182604 -0.0056167,-0.0027309 -0.00865737,-0.0027309 -0.00667645,0 -0.0121383,0.0027309 -0.0163936,0.00819271 -0.00424717,0.00546996 -0.00789109,0.0106301 -0.0109318,0.0154887 -0.00910573,0.0151789 -0.0197359,0.0303579 -0.0318741,0.045545 -0.0121464,0.0151789 -0.0255075,0.0286867 -0.0400832,0.0405315 -0.0145675,0.0118366 -0.0303579,0.0215538 -0.0473628,0.0291432 -0.017005,0.00758947 -0.0352164,0.0113883 -0.0546507,0.0113883 -0.0212521,0 -0.0364311,-0.00591832 -0.045545,-0.0177631 -0.00910573,-0.0118366 -0.0136627,-0.0280835 -0.0136627,-0.0487324 0,-0.011535 0.00151626,-0.0242847 0.00455694,-0.0382571 0.0139643,-0.00485041 0.0291432,-0.0139643 0.045545,-0.0273253 0.0163936,-0.0133529 0.0317274,-0.0286867 0.0459933,-0.0459933 0.0142741,-0.0173066 0.0261107,-0.0352246 0.0355262,-0.0537458 0.00941551,-0.0185131 0.0141192,-0.0353713 0.0141192,-0.0505503 0,-0.0157903 -0.00440205,-0.0288416 -0.0132062,-0.039162 -0.00880411,-0.0103285 -0.021407,-0.0154887 -0.0378006,-0.0154887 -0.0242928,0 -0.0466047,0.00941551 -0.066952,0.0282384 -0.0203391,0.0188229 -0.0378006,0.0417462 -0.0523763,0.0687699 -0.0145675,0.0270237 -0.0258009,0.0551072 -0.0337002,0.0842504 -0.00789109,0.0291514 -0.0118366,0.0540474 -0.0118366,0.0746963 0,0.0163936 0.00181789,0.032029 0.00546181,0.0469063 0.00364392,0.0148773 0.00956224,0.0279286 0.0177631,0.0391701 0.00819271,0.0112334 0.018668,0.0203391 0.0314258,0.0273253 0.0127497,0.00697807 0.0282302,0.0104753 0.0464498,0.0104753zm0.0592076 -0.337018c0.00607321,0 0.0101736,0.00227439 0.0122931,0.00683134 0.00212766,0.00454879 0.00318741,0.00926062 0.00318741,0.0141192 0,0.0121383 -0.00333415,0.0247412 -0.0100188,0.0378006 -0.00667645,0.0130513 -0.0148773,0.0258009 -0.0245863,0.038249 -0.00971713,0.012448 -0.0203473,0.0236814 -0.0318823,0.0337083 -0.011535,0.0100188 -0.0221652,0.0180647 -0.0318823,0.0241379 0.00121464,-0.00789924 0.00455694,-0.020494 0.0100188,-0.0378006 0.00546996,-0.0173066 0.0121464,-0.0346132 0.0200375,-0.0519198 0.00789924,-0.0173066 0.0164017,-0.0324937 0.0255075,-0.045545 0.00910573,-0.0130594 0.0182196,-0.019581 0.0273253,-0.019581zm0.221342 0.194921c0.00910573,0.00303253 0.0179098,0.00667645 0.0264123,0.0109318 0.00850249,0.00424717 0.017005,0.00880411 0.0255075,0.0136627 0.0206407,0.0103204 0.0411348,0.0210973 0.061482,0.0323306 0.0203391,0.0112334 0.0408331,0.0220184 0.061482,0.0323388 0.00485856,0.00242928 0.00956224,0.00455694 0.0141192,0.00637483 0.00454879,0.00182604 0.00926062,0.0027309 0.0141192,0.0027309 0.00424717,0 0.00849434,-0.000758132 0.0127497,-0.00227439 0.00424717,-0.00151626 0.00637483,-0.00501345 0.00637483,-0.0104753 0,-0.00850249 -0.00303253,-0.0162468 -0.00910573,-0.0232249 -0.00607321,-0.00698622 -0.012448,-0.0129045 -0.0191326,-0.0177631 -0.0176082,-0.0121464 -0.0356729,-0.0235347 -0.0541942,-0.0341567 -0.0185212,-0.0106301 -0.0371974,-0.0211054 -0.0560202,-0.0314258 -0.011535,-0.00667645 -0.0229233,-0.0130594 -0.0341567,-0.0191245 -0.0112334,-0.00607321 -0.0229233,-0.0115432 -0.0350697,-0.0164017 0.0291514,-0.0279286 0.0584495,-0.0555637 0.0879025,-0.0828891 0.029453,-0.0273253 0.0599658,-0.0537377 0.0915383,-0.0792451 0.00485856,-0.00424717 0.0101736,-0.00925247 0.0159452,-0.015024 0.00576343,-0.00577158 0.00864922,-0.0119915 0.00864922,-0.0186761 0,-0.00485856 -0.00197277,-0.00956224 -0.00591832,-0.0141192 -0.00394555,-0.00454879 -0.0083476,-0.00683134 -0.0132062,-0.00683134 -0.00607321,0 -0.0119997,0.00273906 -0.0177631,0.00820086 -0.00577158,0.00546181 -0.0107769,0.0100188 -0.0150322,0.0136627 -0.0279286,0.0267221 -0.0558653,0.0528328 -0.0837939,0.0783321 -0.0279367,0.0255075 -0.0552621,0.0522214 -0.0819842,0.0801582 0.00607321,-0.0534361 0.0138176,-0.106114 0.0232331,-0.158034 0.00940735,-0.0519198 0.0201842,-0.103994 0.0323306,-0.156216 0.00546996,-0.02307 0.0110867,-0.0463031 0.0168501,-0.0696747 0.00577158,-0.0233798 0.0129045,-0.0466047 0.021407,-0.0696829 0.00242928,-0.00667645 0.00455694,-0.0133611 0.00637483,-0.0200375 0.00182604,-0.0066846 0.0027309,-0.0133611 0.0027309,-0.0200375 0,-0.0164017 -0.00758947,-0.0245944 -0.0227684,-0.0245944 -0.0212521,0 -0.0376457,0.00697807 -0.0491889,0.0209505 -0.011535,0.0139643 -0.0200375,0.0300563 -0.0254993,0.0482759 -0.0121464,0.040075 -0.0220103,0.0807614 -0.0296079,0.122051 -0.00758947,0.0412896 -0.0147224,0.0825874 -0.0213989,0.123877 -0.00850249,0.0552621 -0.0151871,0.110516 -0.0200457,0.165778 -0.00485041,0.0552539 -0.00727969,0.110818 -0.00727969,0.166683 0,0.0121464 0,0.0255075 0,0.0400832 0,0.0145675 0.000301622,0.0291432 0.000904867,0.0437189 0.000611396,0.0145757 0.00136953,0.0289965 0.00228255,0.0432624 0.000904867,0.0142741 0.00257602,0.0271786 0.0050053,0.0387136 0.00121464,0.00667645 0.00349719,0.0126029 0.00683134,0.0177631 0.0033423,0.00516019 0.008959,0.00774436 0.0168501,0.00774436 0.00546996,0 0.00987202,-0.00152442 0.0132062,-0.00455694 0.0033423,-0.00303253 0.00577158,-0.00667645 0.00728785,-0.0109318 0.00152442,-0.00424717 0.00242928,-0.00880411 0.00273906,-0.0136627 0.000301622,-0.00485856 0.000448357,-0.00940735 0.000448357,-0.0136627 0,-0.0139643 0.000611396,-0.027627 0.00182604,-0.040988 0.00121464,-0.0133611 0.00242928,-0.0270237 0.00364392,-0.040988 0.00121464,-0.0176082 0.00257602,-0.0349148 0.00410043,-0.0519198 0.00151626,-0.017005 0.00379066,-0.0340018 0.00683134,-0.0510068z"/>
  <path class="fil0" d="M0.635779 0.482759c0,0.0109318 0.000146735,0.0247412 0.000448357,0.0414445 0.000309774,0.0166952 0.00136953,0.0346132 0.00319557,0.0537377 0.00181789,0.0191326 0.00470368,0.038412 0.00864922,0.0578381 0.00394555,0.0194343 0.00941551,0.0368957 0.0163936,0.0523763 0.00698622,0.0154887 0.0157903,0.0280835 0.0264205,0.0378006 0.010622,0.00971713 0.0238282,0.0145757 0.0396185,0.0145757 0.0145757,0 0.0295997,-0.00531507 0.0450885,-0.0159452 0.0154806,-0.010622 0.0303579,-0.0233716 0.0446319,-0.038249 0.0142659,-0.0148773 0.0270237,-0.0306676 0.0382571,-0.047371 0.0112334,-0.0166952 0.019581,-0.031116 0.0250428,-0.0432624 0.00182604,-0.00364392 0.00349719,-0.00728785 0.00501345,-0.0109318 0.00151626,-0.00364392 0.00227439,-0.00758947 0.00227439,-0.0118366 0,-0.00364392 -0.001663,-0.0066846 -0.0050053,-0.00911388 -0.0033423,-0.00242928 -0.00652971,-0.00364392 -0.00956224,-0.00364392 -0.00485856,0 -0.008959,0.00167115 -0.0123013,0.00501345 -0.00333415,0.00333415 -0.00621994,0.00683134 -0.00864922,0.0104753 -0.00607321,0.00850249 -0.0129045,0.0191245 -0.020494,0.0318741 -0.00758947,0.0127578 -0.0157903,0.025051 -0.0245944,0.0368957 -0.00880411,0.0118366 -0.0185212,0.0220103 -0.0291514,0.0305128 -0.010622,0.00850249 -0.0223119,0.0127497 -0.0350616,0.0127497 -0.00911388,0 -0.0164017,-0.00455694 -0.0218635,-0.0136627 -0.00546996,-0.00910573 -0.00971713,-0.0198826 -0.0127497,-0.0323306 -0.00304068,-0.0124562 -0.00501345,-0.0249042 -0.00592647,-0.0373522 -0.000904867,-0.012448 -0.00136138,-0.0220103 -0.00136138,-0.0286867 0,-0.041901 0.00197277,-0.0831907 0.00591832,-0.123877 0.00394555,-0.0406864 0.00926062,-0.0813728 0.0159371,-0.122059 0.00242928,-0.0139643 0.00455694,-0.027627 0.00637483,-0.040988 0.00182604,-0.0133611 0.00273906,-0.0270237 0.00273906,-0.040988 0,-0.00789109 -0.000913019,-0.0162387 -0.00273906,-0.025051 -0.00181789,-0.00880411 -0.00789109,-0.0132062 -0.0182115,-0.0132062 -0.00728785,0 -0.0145757,0.00151626 -0.0218635,0.00455694 -0.00546181,0.00242928 -0.00986386,0.00621994 -0.0132062,0.0113883 -0.0033423,0.00516019 -0.00607321,0.0109236 -0.00820086,0.0173066 -0.00211951,0.00637483 -0.00379066,0.0129045 -0.0050053,0.019581 -0.00121464,0.00667645 -0.00242928,0.0127497 -0.00364392,0.0182196 -0.00364392,0.0163936 -0.00941551,0.0323306 -0.0173066,0.0478194 -0.00789109,0.0154806 -0.0151789,0.031116 -0.0218635,0.0469063 -0.0151789,0.0333986 -0.0306595,0.0661857 -0.0464498,0.0983696 -0.0157903,0.0321839 -0.0321839,0.0646776 -0.0491889,0.0974648 -0.011535,0.0218635 -0.0230782,0.0435722 -0.0346132,0.065126 -0.011535,0.0215619 -0.023983,0.0429608 -0.0373441,0.0642129 -0.00181789,0.00242928 -0.00410043,0.00577158 -0.00683134,0.0100269 -0.0027309,0.00424717 -0.00577158,0.00849434 -0.00910573,0.0127497 -0.0033423,0.00424717 -0.0066846,0.00789109 -0.0100188,0.0109318 -0.0033423,0.00303253 -0.00652971,0.00454879 -0.00957039,0.00454879 -0.00485856,0 -0.0083476,-0.0056167 -0.0104753,-0.0168501 -0.00211951,-0.0112334 -0.00364392,-0.023983 -0.00454879,-0.0382571 -0.000913019,-0.0142659 -0.00121464,-0.0280835 -0.000913019,-0.0414445 0.000301622,-0.0133529 0.000456509,-0.0218554 0.000456509,-0.0254993 0,-0.0607239 0.000758132,-0.120535 0.00227439,-0.179441 0.00151626,-0.058906 0.00228255,-0.118717 0.00228255,-0.179441 0,-0.00546181 -0.000154887,-0.0142659 -0.000456509,-0.0264123 -0.000309774,-0.0121464 -0.00106791,-0.0245944 -0.00228255,-0.0373441 -0.00121464,-0.0127578 -0.00333415,-0.0244396 -0.00637483,-0.0350697 -0.00303253,-0.0106301 -0.00728785,-0.0171517 -0.0127497,-0.019581 -0.00728785,-0.00364392 -0.0157903,-0.00546996 -0.0255075,-0.00546996 -0.00424717,0 -0.0103204,0.00121464 -0.0182115,0.00364392 -0.00789924,0.00242928 -0.0154887,0.0056167 -0.0227766,0.00956224 -0.00728785,0.0039537 -0.0136627,0.00850249 -0.0191245,0.0136627 -0.00546996,0.00516834 -0.00820086,0.0104753 -0.00820086,0.0159452 0,0.00242928 0.000301622,0.00424717 0.000913019,0.00546181 0.00424717,0.0121464 0.00698622,0.0244396 0.00820086,0.0368876 0.00121464,0.0124562 0.00181789,0.025051 0.00181789,0.0378006 0,0.018831 -0.0027309,0.0456998 -0.00820086,0.0806147 -0.00546181,0.0349148 -0.0133529,0.0727154 -0.0236814,0.113402 -0.0103204,0.0406864 -0.0227684,0.0822777 -0.0373441,0.12479 -0.0145757,0.0425043 -0.031116,0.081063 -0.0496372,0.115676 -0.0185212,0.0346132 -0.0385587,0.0628516 -0.0601207,0.0847069 -0.0215538,0.0218635 -0.0444771,0.0327953 -0.0687699,0.0327953 -0.00667645,0 -0.0132062,-0.000758132 -0.019581,-0.00227439 -0.00637483,-0.00152442 -0.0129045,-0.00228255 -0.019581,-0.00228255 -0.00485856,0 -0.008959,0.00182604 -0.0123013,0.00546996 -0.0033423,0.00364392 -0.0050053,0.00789109 -0.0050053,0.0127497 0,0.00546181 0.00136138,0.00971713 0.00409228,0.0127497 0.00273906,0.00304068 0.00622809,0.00546996 0.0104753,0.00728785 0.00425532,0.00182604 0.00880411,0.00288579 0.0136627,0.00318741 0.00485856,0.000301622 0.00941551,0.000456509 0.0136627,0.000456509 0.0255075,0 0.0487324,-0.00607321 0.0696829,-0.0182196 0.0209505,-0.0121383 0.040075,-0.0280835 0.0573816,-0.0478194 0.0173066,-0.0197359 0.0326404,-0.0423494 0.0460015,-0.0678569 0.0133611,-0.0255075 0.0251977,-0.0513084 0.0355262,-0.0774191 0.0103204,-0.0261189 0.0194261,-0.0517731 0.0273253,-0.0769707 0.00789109,-0.0251977 0.0148773,-0.0475177 0.0209505,-0.066952 0.000603245,-0.00121464 0.00121464,-0.00303253 0.00181789,-0.00546181 0.000611396,-0.00242928 0.00151626,-0.00364392 0.0027309,-0.00364392 0.00121464,0 0.00182604,0.00121464 0.00182604,0.00364392 0,0.00242928 0,0.00394555 0,0.00455694 0,0.0218554 0.000146735,0.0459933 0.000456509,0.0724138 0.000301622,0.0264123 0.00151626,0.0532812 0.00364392,0.0806065 0.00211951,0.0273253 0.00546181,0.0537377 0.0100188,0.0792451 0.00454879,0.0255075 0.0107769,0.0482759 0.018668,0.0683134 0.00425532,0.0103285 0.0104753,0.019581 0.0186761,0.0277819 0.00819271,0.00820086 0.0183664,0.0123013 0.0305128,0.0123013 0.0157903,0 0.0324855,-0.00850249 0.0500938,-0.0255075 0.0176164,-0.017005 0.0350697,-0.038412 0.0523763,-0.0642129 0.0173066,-0.0258091 0.0341567,-0.0537458 0.0505503,-0.0838021 0.0164017,-0.0300563 0.0311242,-0.057993 0.0441836,-0.0838021 0.0130513,-0.0258009 0.0241379,-0.0475096 0.0332437,-0.065126 0.00910573,-0.0176082 0.0148773,-0.0270156 0.0173066,-0.0282302 0.000603245,0.000603245 0.000913019,0.00151626 0.000913019,0.0027309zm0.209489 0.170327c0,0.0133611 0.00152442,0.0273253 0.00455694,0.041901 0.00303253,0.0145757 0.00789109,0.027627 0.0145757,0.0391701 0.00667645,0.011535 0.0156354,0.0210973 0.0268688,0.0286867 0.0112334,0.00758947 0.025051,0.0113883 0.0414445,0.0113883 0.0127497,0 0.0251977,-0.00227439 0.0373441,-0.00683134 0.0121464,-0.00455694 0.0233798,-0.0101736 0.0337002,-0.0168501 0.0176082,-0.011535 0.0324855,-0.0255075 0.0446319,-0.041901 0.0121464,-0.0163936 0.0221652,-0.0340018 0.0300644,-0.0528328 0.00789109,-0.0188229 0.0136627,-0.0384039 0.0172984,-0.058743 0.00364392,-0.0203473 0.00546996,-0.0405397 0.00546996,-0.0605772 0,-0.0139643 -0.00136953,-0.0282384 -0.00410043,-0.0428059 -0.0027309,-0.0145757 -0.00728785,-0.0279367 -0.0136627,-0.0400832 -0.00637483,-0.0121464 -0.0150322,-0.0221652 -0.0259558,-0.0300563 -0.0109318,-0.00789109 -0.0248961,-0.0118448 -0.041901,-0.0118448 -0.0273253,0 -0.0514633,0.00835575 -0.0724138,0.025051 -0.0209505,0.0167034 -0.0387136,0.0371974 -0.0532893,0.061482 -0.0145675,0.0242928 -0.0256542,0.0504035 -0.0332437,0.0783321 -0.00758947,0.0279367 -0.0113883,0.0534442 -0.0113883,0.0765142zm0.170335 -0.181259c0.00971713,0 0.0176082,0.00288579 0.0236814,0.00864922 0.00607321,0.00577158 0.0109318,0.0127578 0.0145757,0.0209505 0.00364392,0.00820086 0.00607321,0.0171599 0.00728785,0.026877 0.00121464,0.00970898 0.00181789,0.0182115 0.00181789,0.0254993 0,0.0139643 -0.00121464,0.0283933 -0.00364392,0.0432706 -0.00242928,0.0148773 -0.00621994,0.0292981 -0.0113883,0.0432624 -0.00516019,0.0139643 -0.0118366,0.0271705 -0.0200375,0.0396185 -0.00819271,0.012448 -0.0180647,0.0232331 -0.0295997,0.0323388 -0.00607321,0.00485856 -0.0126029,0.008959 -0.019581,0.0122931 -0.00698622,0.0033423 -0.014429,0.00501345 -0.02232,0.00501345 -0.00910573,0 -0.0166952,-0.00258417 -0.0227684,-0.00774436 -0.00607321,-0.00516019 -0.010785,-0.0113801 -0.0141192,-0.018668 -0.0033423,-0.00728785 -0.0056167,-0.0153338 -0.00683134,-0.0241379 -0.00121464,-0.00880411 -0.00182604,-0.0168501 -0.00182604,-0.0241379 0,-0.0139724 0.00228255,-0.031279 0.00683134,-0.0519198 0.00455694,-0.0206489 0.0112334,-0.0406864 0.0200375,-0.0601207 0.00881226,-0.0194261 0.0197359,-0.0361295 0.0327953,-0.0500938 0.0130513,-0.0139643 0.0280835,-0.0209505 0.0450885,-0.0209505zm0.351586 -0.146645c0.00364392,-0.000611396 0.00910573,-0.00182604 0.0163936,-0.00364392 0.00728785,-0.00182604 0.0148773,-0.00379881 0.0227766,-0.00592647 0.00789109,-0.00211951 0.0151789,-0.00424717 0.0218554,-0.00637483 0.0066846,-0.00211951 0.0112334,-0.00379066 0.0136627,-0.0050053 0.00364392,-0.00242928 0.00652971,-0.00471183 0.00865737,-0.00683134 0.00212766,-0.00212766 0.00318741,-0.0056167 0.00318741,-0.0104753 0,-0.00789924 -0.00425532,-0.0118448 -0.0127497,-0.0118448 -0.0103285,0 -0.0206489,0.000913019 -0.0309693,0.0027309 -0.0103285,0.00182604 -0.0206489,0.0033423 -0.0309693,0.00455694 0.00667645,-0.0230782 0.0116899,-0.0467596 0.015024,-0.0710443 0.0033423,-0.0242928 0.00501345,-0.0482759 0.00501345,-0.0719573 0,-0.0066846 -0.000301622,-0.0147306 -0.000913019,-0.0241379 -0.000603245,-0.00941551 -0.00227439,-0.0183745 -0.00501345,-0.0268688 -0.0027309,-0.00850249 -0.00683134,-0.0157903 -0.0122931,-0.0218635 -0.00546181,-0.00607321 -0.0130513,-0.00910573 -0.0227684,-0.00910573 -0.0212521,0 -0.0405397,0.00970898 -0.0578381,0.0291432 -0.0173066,0.0194343 -0.0326404,0.0426592 -0.0460015,0.0696829 -0.0133611,0.0270237 -0.0245944,0.0543491 -0.0337002,0.081976 -0.00911388,0.027627 -0.016092,0.0496372 -0.0209505,0.066039 -0.00971713,0.000603245 -0.0198908,0.0027309 -0.0305128,0.00637483 -0.0106301,0.00364392 -0.0159452,0.011535 -0.0159452,0.0236814 0,0.0145757 0.00728785,0.0218635 0.0218635,0.0218635 0.00667645,0 0.0130513,-0.000913019 0.0191245,-0.00273906 -0.00607321,0.0291514 -0.0101655,0.0587511 -0.0122931,0.0888155 -0.00212766,0.0300563 -0.00318741,0.0599576 -0.00318741,0.0897122 0,0.0115432 0.000603245,0.025964 0.00181789,0.0432706 0.00121464,0.0173066 0.0033423,0.0356729 0.00638298,0.0551072 0.00303253,0.0194343 0.00727969,0.0388604 0.0127497,0.0582946 0.00546181,0.0194343 0.0122931,0.0368876 0.020494,0.0523763 0.00819271,0.0154806 0.0182196,0.0280835 0.0300563,0.0378006 0.0118448,0.00970898 0.0256542,0.0145675 0.0414445,0.0145675 0.0182196,0 0.0367409,-0.00591832 0.0555637,-0.017755 0.0188229,-0.0118448 0.0367409,-0.0262656 0.0537377,-0.0432706 0.017005,-0.017005 0.0324855,-0.0350697 0.046458,-0.0541942 0.0139643,-0.0191326 0.0251977,-0.0359827 0.0337002,-0.0505503 0.00364392,-0.00607321 0.00698622,-0.0121464 0.0100188,-0.0182196 0.00303253,-0.00607321 0.00455694,-0.012448 0.00455694,-0.0191326 0,-0.00363577 -0.00121464,-0.00683134 -0.00364392,-0.00956224 -0.00242928,-0.0027309 -0.00546996,-0.00410043 -0.00911388,-0.00410043 -0.00485856,0 -0.00940735,0.00242928 -0.0136627,0.00728785 -0.00424717,0.00485856 -0.00758947,0.00941551 -0.0100188,0.0136627 -0.00667645,0.0109318 -0.0156354,0.0244477 -0.0268688,0.0405397 -0.0112334,0.016092 -0.0236814,0.0314176 -0.0373441,0.0459933 -0.0136627,0.0145757 -0.0279367,0.0271786 -0.0428141,0.0378006 -0.0148773,0.0106301 -0.0292981,0.0159452 -0.0432624,0.0159452 -0.0121464,0 -0.0220103,-0.00728785 -0.0295997,-0.0218635 -0.00759762,-0.0145757 -0.0133611,-0.0315807 -0.0173066,-0.0510068 -0.0039537,-0.0194343 -0.0066846,-0.0387136 -0.00820086,-0.0578381 -0.00151626,-0.0191326 -0.00227439,-0.0332518 -0.00227439,-0.0423575 0,-0.00242928 0,-0.00577158 0,-0.0100188 0,-0.00425532 0.000603245,-0.00758947 0.00181789,-0.0100188 0.00121464,-0.00304068 0.00318741,-0.00622809 0.00591832,-0.00956224 0.00273906,-0.0033423 0.00531507,-0.00652971 0.00774436,-0.00957039 0.00425532,-0.00607321 0.00850249,-0.0119915 0.0127497,-0.0177631 0.00425532,-0.00576343 0.00820086,-0.0119915 0.0118448,-0.018668 0.0151789,-0.0248961 0.0297546,-0.0514633 0.0437189,-0.0797016 0.0139724,-0.0282384 0.0245944,-0.0563218 0.0318823,-0.0842504zm-0.0109318 -0.222255c0.00242928,0 0.00425532,0.00121464 0.00546996,0.00364392 0.00121464,0.00242928 0.00211951,0.00516019 0.0027309,0.00820086 0.000603245,0.00303253 0.000913019,0.00607321 0.000913019,0.00910573 0,0.00304068 0,0.00516019 0,0.00637483 0,0.0242928 -0.00242928,0.0507051 -0.00728785,0.0792451 -0.00485856,0.02854 -0.0109318,0.0543491 -0.0182196,0.0774273 -0.0121464,0.00303253 -0.0245944,0.0050053 -0.0373441,0.00591832 -0.0127497,0.000913019 -0.0251977,0.00227439 -0.0373441,0.00410043 0.00121464,-0.00911388 0.00470368,-0.0242928 0.0104753,-0.045545 0.00576343,-0.0212521 0.0129045,-0.0429608 0.0213989,-0.065126 0.00850249,-0.0221652 0.017918,-0.0415994 0.0282384,-0.0582946 0.0103285,-0.0166952 0.0206489,-0.025051 0.0309693,-0.025051zm-0.0965517 0.243205c0.0103285,-0.00304068 0.0209505,-0.00501345 0.0318823,-0.00592647 0.0109318,-0.000904867 0.0218635,-0.00257602 0.0327953,-0.0050053 -0.00304068,0.0109318 -0.00759762,0.0235265 -0.0136708,0.0378006 -0.00606505,0.0142659 -0.0128964,0.0288416 -0.020494,0.0437189 -0.00758947,0.0148773 -0.0154806,0.0289965 -0.0236814,0.0423575 -0.00819271,0.0133529 -0.0156354,0.0242847 -0.0223119,0.0327872 0.00181789,-0.0242847 0.00348904,-0.0487324 0.0050053,-0.0733268 0.00152442,-0.0245863 0.00501345,-0.0487242 0.0104753,-0.0724056zm0.286011 0.787886c0.0145757,0 0.02854,-0.0027309 0.041901,-0.00819271 0.0133611,-0.00546996 0.0258091,-0.012448 0.0373441,-0.0209505 0.011535,-0.00850249 0.0223119,-0.0183745 0.0323388,-0.0296079 0.0100188,-0.0112334 0.018668,-0.0226135 0.0259558,-0.0341567 0.0224668,-0.0346132 0.0399283,-0.0719573 0.0523763,-0.112032 0.012448,-0.040075 0.0218554,-0.0812179 0.0282384,-0.123421 0.00637483,-0.0422027 0.0103204,-0.0847151 0.0118366,-0.127521 0.00151626,-0.0428141 0.00227439,-0.0842586 0.00227439,-0.124334 0,-0.00485856 0,-0.012448 0,-0.0227684 0,-0.0103285 -0.000448357,-0.0209505 -0.00136138,-0.0318823 -0.000913019,-0.0109318 -0.00242928,-0.0212521 -0.00455694,-0.0309693 -0.00212766,-0.00971713 -0.0050053,-0.0157903 -0.00864922,-0.0182196 -0.00607321,-0.00424717 -0.0121464,-0.00637483 -0.0182196,-0.00637483 -0.00728785,0 -0.0135078,0.00304068 -0.0186761,0.00911388 -0.00516019,0.00606505 -0.00986386,0.011535 -0.0141192,0.0163936 -0.0218554,0.0279286 -0.0432624,0.0560121 -0.0642129,0.0842504 -0.0209505,0.0282384 -0.0438738,0.0551072 -0.0687699,0.0806147 -0.00242928,0.00242928 -0.00652971,0.00637483 -0.0122931,0.0118366 -0.00577158,0.00546996 -0.0118448,0.0109318 -0.0182196,0.0164017 -0.00637483,0.00546181 -0.0126029,0.0103204 -0.0186761,0.0145675 -0.00606505,0.00425532 -0.0109236,0.00637483 -0.0145675,0.00637483 -0.00485856,0 -0.00758947,-0.00242113 -0.00820086,-0.00727969 -0.000603245,-0.00485856 -0.000913019,-0.00881226 -0.000913019,-0.0118448 0,-0.00850249 0.00136953,-0.0191245 0.00410043,-0.0318823 0.0027309,-0.0127497 0.00607321,-0.0261107 0.0100188,-0.040075 0.00394555,-0.0139643 0.00820086,-0.0273253 0.0127578,-0.040075 0.00454879,-0.0127578 0.0083476,-0.0230782 0.0113801,-0.0309693 0.00304068,-0.00728785 0.00698622,-0.0162468 0.0118448,-0.026877 0.00485856,-0.010622 0.00728785,-0.0198826 0.00728785,-0.0277737 0,-0.0103285 -0.00394555,-0.0191326 -0.0118448,-0.0264205 -0.00789109,-0.00728785 -0.017005,-0.0109318 -0.0273253,-0.0109318 -0.00850249,0 -0.0154806,0.00242928 -0.0209505,0.00728785 -0.00546181,0.00485856 -0.0100188,0.0109318 -0.0136627,0.0182196 -0.00303253,0.00546181 -0.00531507,0.0110785 -0.00683134,0.0168501 -0.00151626,0.00577158 -0.00318741,0.0116899 -0.0050053,0.0177631 -0.00850249,0.0261107 -0.0159452,0.0531344 -0.02232,0.081063 -0.00637483,0.0279367 -0.00956224,0.0555637 -0.00956224,0.0828891 0,0.00789924 0.000603245,0.0162468 0.00181789,0.025051 0.00121464,0.00880411 0.00364392,0.0166952 0.00728785,0.0236814 0.00364392,0.00698622 0.00865737,0.0127497 0.0150322,0.0173066 0.00637483,0.00455694 0.0147224,0.00683134 0.025051,0.00683134 0.0151789,0 0.0332437,-0.00743458 0.0541942,-0.0223119 0.0209505,-0.0148855 0.0417462,-0.0324937 0.062395,-0.0528328 0.0206407,-0.0203473 0.0396185,-0.040988 0.0569251,-0.0619385 0.0173066,-0.0209505 0.0295997,-0.0378006 0.0368876,-0.0505503 0.00182604,0.0473628 0.00273906,0.0944241 0.00273906,0.141184 0,0.00849434 0,0.0172984 0,0.0264123 0,0.00850249 -0.000309774,0.017005 -0.000913019,0.0254993 -0.0236814,0.0151871 -0.0493356,0.0340099 -0.0769707,0.0564767 -0.027627,0.0224668 -0.0534361,0.0469063 -0.0774191,0.0733268 -0.0239912,0.0264123 -0.0440287,0.0544958 -0.0601207,0.0842504 -0.016092,0.0297546 -0.0241379,0.0598109 -0.0241379,0.0901769 0,0.0121464 0.00136953,0.0241379 0.00410043,0.0359746 0.0027309,0.0118448 0.00713296,0.02232 0.0132062,0.0314258 0.00607321,0.00911388 0.0139643,0.0165485 0.0236814,0.02232 0.00971713,0.00576343 0.0215619,0.00864922 0.0355262,0.00864922zm0.157577 -0.36343c-0.00181789,0.0200375 -0.00516019,0.0423575 -0.0100188,0.066952 -0.00485856,0.0245863 -0.0107769,0.0493356 -0.0177631,0.0742317 -0.00697807,0.0248961 -0.0151789,0.0487324 -0.0245944,0.0715008 -0.00940735,0.0227766 -0.0201842,0.0420559 -0.0323306,0.0578381 -0.00425532,0.00546996 -0.00911388,0.0113883 -0.0145757,0.0177631 -0.00546181,0.00637483 -0.0113883,0.0123013 -0.0177631,0.0177631 -0.00637483,0.00546181 -0.0130513,0.0100188 -0.0200375,0.0136627 -0.00698622,0.00364392 -0.0141192,0.00546181 -0.021407,0.00546181 -0.00728785,0 -0.0132062,-0.00197277 -0.0177631,-0.00591832 -0.00454879,-0.00394555 -0.00819271,-0.00880411 -0.0109236,-0.0145757 -0.00273906,-0.00576343 -0.00455694,-0.0121383 -0.00546996,-0.0191245 -0.000913019,-0.00698622 -0.00136138,-0.0132062 -0.00136138,-0.0186761 0,-0.026714 0.00652156,-0.0528247 0.019581,-0.0783321 0.0130513,-0.0254993 0.0292981,-0.0496372 0.0487324,-0.0724138 0.0194261,-0.0227684 0.0403766,-0.0438738 0.0628434,-0.0632999 0.0224749,-0.0194343 0.0434173,-0.0370425 0.0628516,-0.0528328zm0.27508 0.0218635c0.0188229,0 0.0376457,-0.00592647 0.0564686,-0.0177631 0.0188229,-0.0118448 0.0367409,-0.0262656 0.0537458,-0.0432706 0.0169968,-0.0169968 0.0323306,-0.0352164 0.0459933,-0.0546507 0.0136627,-0.0194261 0.025051,-0.0364311 0.0341567,-0.0510068 0.00304068,-0.00485856 0.00607321,-0.0100188 0.00911388,-0.0154806 0.00303253,-0.00546996 0.00454879,-0.0112334 0.00454879,-0.0173066 0,-0.00425532 -0.000904867,-0.00804598 -0.0027309,-0.0113883 -0.00181789,-0.0033423 -0.00516019,-0.00501345 -0.0100188,-0.00501345 -0.00485856,0 -0.00864922,0.00121464 -0.0113883,0.00364392 -0.0027309,0.00242928 -0.00530692,0.00546996 -0.0077362,0.00911388 -0.00425532,0.00607321 -0.00820086,0.0122931 -0.0118448,0.018668 -0.00364392,0.00637483 -0.00758947,0.0126029 -0.0118448,0.0186761 -0.00606505,0.00850249 -0.014111,0.0191245 -0.0241298,0.0318823 -0.0100269,0.0127497 -0.0209505,0.0250428 -0.0327953,0.0368876 -0.0118366,0.0118366 -0.0241379,0.0218635 -0.0368876,0.0300563 -0.0127497,0.00820086 -0.0245944,0.0123013 -0.0355262,0.0123013 -0.0127497,0 -0.0227684,-0.00577158 -0.0300563,-0.0173066 -0.00728785,-0.0115432 -0.0130594,-0.0252058 -0.0173066,-0.040988 -0.00425532,-0.0157903 -0.00698622,-0.0317356 -0.00820086,-0.0478275 -0.00121464,-0.016092 -0.00181789,-0.0286867 -0.00181789,-0.0378006 0,-0.00546181 0.000146735,-0.0122931 0.000456509,-0.020494 0.000301622,-0.00819271 0.00136138,-0.0147224 0.00318741,-0.019581 0.00121464,-0.00424717 0.00348904,-0.00880411 0.00683134,-0.0136627 0.00333415,-0.00485856 0.00621994,-0.00910573 0.00864922,-0.0127497 0.00728785,-0.0121464 0.0147306,-0.0238363 0.02232,-0.0350697 0.00758947,-0.0112334 0.0147224,-0.0229233 0.021407,-0.0350697 0.0139643,-0.0248961 0.027627,-0.0531344 0.040988,-0.0847069 0.0133529,-0.0315807 0.0254993,-0.0640662 0.0364311,-0.0974648 0.0109318,-0.0333986 0.0197359,-0.0667971 0.0264123,-0.100196 0.0066846,-0.0333986 0.0100188,-0.0643678 0.0100188,-0.0929078 0,-0.00849434 -0.000904867,-0.0176082 -0.0027309,-0.0273253 -0.00181789,-0.00971713 -0.00470368,-0.018668 -0.00864922,-0.0268688 -0.00394555,-0.00819271 -0.00941551,-0.0148773 -0.0164017,-0.0200375 -0.00697807,-0.00516019 -0.0159371,-0.00774436 -0.0268688,-0.00774436 -0.0133529,0 -0.0265672,0.00485856 -0.0396185,0.0145757 -0.0130594,0.00971713 -0.0251977,0.0217087 -0.0364392,0.0359827 -0.0112334,0.0142659 -0.0210973,0.0289883 -0.0295997,0.0441754 -0.00850249,0.0151789 -0.0151789,0.0282302 -0.0200375,0.039162 -0.0255075,0.058906 -0.0434173,0.119475 -0.0537377,0.181715 -0.0103285,0.0622483 -0.0154887,0.125247 -0.0154887,0.189003 0,0.0115432 0.000456509,0.0267221 0.00136953,0.045545 0.000904867,0.0188229 0.00257602,0.0390152 0.0050053,0.0605772 0.00242928,0.0215538 0.00607321,0.0431075 0.0109318,0.0646694 0.00485856,0.0215538 0.011535,0.040988 0.0200375,0.0582946 0.00850249,0.0173066 0.0186761,0.0314258 0.0305128,0.0423494 0.0118448,0.0109318 0.0262656,0.0164017 0.0432706,0.0164017zm0.086533 -0.748732c0.00363577,0 0.00637483,0.00136953 0.00819271,0.00410043 0.00182604,0.00273906 0.00318741,0.00592647 0.00410043,0.00957039 0.000913019,0.00363577 0.00136953,0.00758947 0.00136953,0.0118366 0,0.00364392 0,0.00637483 0,0.00820086 0,0.0291432 -0.00455694,0.0613271 -0.0136627,0.0965517 -0.00911388,0.0352164 -0.0205022,0.0705878 -0.0341648,0.106114 -0.0136627,0.0355181 -0.0288416,0.0698296 -0.0455368,0.102927 -0.0167034,0.0330888 -0.0323388,0.0620853 -0.0469145,0.0869813 -0.000603245,-0.00485041 -0.000904867,-0.00910573 -0.000904867,-0.0127497 0,-0.00424717 0,-0.00880411 0,-0.0136627 0,-0.0437189 0.00530692,-0.0894106 0.0159371,-0.137083 0.0106301,-0.0476645 0.0223119,-0.0924513 0.0350697,-0.134352 0.00242928,-0.00728785 0.00591832,-0.0182196 0.0104753,-0.0327872 0.00454879,-0.0145757 0.0100188,-0.0288498 0.0163936,-0.0428141 0.00637483,-0.0139643 0.0138176,-0.0262656 0.0223119,-0.0368876 0.00850249,-0.0106301 0.0176164,-0.0159452 0.0273335,-0.0159452zm0.170327 0.725051c0.0248961,0 0.0488873,-0.00425532 0.0719573,-0.0127578 0.0230782,-0.00850249 0.0446319,-0.0198826 0.0646694,-0.0341567 0.0200457,-0.0142659 0.038412,-0.0308144 0.0551072,-0.0496372 0.0167034,-0.018831 0.0308225,-0.0385587 0.0423575,-0.0592076 0.00304068,-0.00485856 0.00516019,-0.00910573 0.00637483,-0.0127497 0.00121464,-0.00364392 0.00182604,-0.00850249 0.00182604,-0.0145757 0,-0.00304068 -0.00136953,-0.00546996 -0.00410043,-0.00728785 -0.0027309,-0.00182604 -0.0056167,-0.0027309 -0.00865737,-0.0027309 -0.00667645,0 -0.0121383,0.0027309 -0.0163936,0.00819271 -0.00424717,0.00546996 -0.00789109,0.0106301 -0.0109318,0.0154887 -0.00910573,0.0151789 -0.0197359,0.0303579 -0.0318741,0.045545 -0.0121464,0.0151789 -0.0255075,0.0286867 -0.0400832,0.0405315 -0.0145675,0.0118366 -0.0303579,0.0215538 -0.0473628,0.0291432 -0.017005,0.00758947 -0.0352164,0.0113883 -0.0546507,0.0113883 -0.0212521,0 -0.0364311,-0.00591832 -0.045545,-0.0177631 -0.00910573,-0.0118366 -0.0136627,-0.0280835 -0.0136627,-0.0487324 0,-0.011535 0.00151626,-0.0242847 0.00455694,-0.0382571 0.0139643,-0.00485041 0.0291432,-0.0139643 0.045545,-0.0273253 0.0163936,-0.0133529 0.0317274,-0.0286867 0.0459933,-0.0459933 0.0142741,-0.0173066 0.0261107,-0.0352246 0.0355262,-0.0537458 0.00941551,-0.0185131 0.0141192,-0.0353713 0.0141192,-0.0505503 0,-0.0157903 -0.00440205,-0.0288416 -0.0132062,-0.039162 -0.00880411,-0.0103285 -0.021407,-0.0154887 -0.0378006,-0.0154887 -0.0242928,0 -0.0466047,0.00941551 -0.066952,0.0282384 -0.0203391,0.0188229 -0.0378006,0.0417462 -0.0523763,0.0687699 -0.0145675,0.0270237 -0.0258009,0.0551072 -0.0337002,0.0842504 -0.00789109,0.0291514 -0.0118366,0.0540474 -0.0118366,0.0746963 0,0.0163936 0.00181789,0.032029 0.00546181,0.0469063 0.00364392,0.0148773 0.00956224,0.0279286 0.0177631,0.0391701 0.00819271,0.0112334 0.018668,0.0203391 0.0314258,0.0273253 0.0127497,0.00697807 0.0282302,0.0104753 0.0464498,0.0104753zm0.0592076 -0.337018c0.00607321,0 0.0101736,0.00227439 0.0122931,0.00683134 0.00212766,0.00454879 0.00318741,0.00926062 0.00318741,0.0141192 0,0.0121383 -0.00333415,0.0247412 -0.0100188,0.0378006 -0.00667645,0.0130513 -0.0148773,0.0258009 -0.0245863,0.038249 -0.00971713,0.012448 -0.0203473,0.0236814 -0.0318823,0.0337083 -0.011535,0.0100188 -0.0221652,0.0180647 -0.0318823,0.0241379 0.00121464,-0.00789924 0.00455694,-0.020494 0.0100188,-0.0378006 0.00546996,-0.0173066 0.0121464,-0.0346132 0.0200375,-0.0519198 0.00789924,-0.0173066 0.0164017,-0.0324937 0.0255075,-0.045545 0.00910573,-0.0130594 0.0182196,-0.019581 0.0273253,-0.019581zm0.221342 0.194921c0.00910573,0.00303253 0.0179098,0.00667645 0.0264123,0.0109318 0.00850249,0.00424717 0.017005,0.00880411 0.0255075,0.0136627 0.0206407,0.0103204 0.0411348,0.0210973 0.061482,0.0323306 0.0203391,0.0112334 0.0408331,0.0220184 0.061482,0.0323388 0.00485856,0.00242928 0.00956224,0.00455694 0.0141192,0.00637483 0.00454879,0.00182604 0.00926062,0.0027309 0.0141192,0.0027309 0.00424717,0 0.00849434,-0.000758132 0.0127497,-0.00227439 0.00424717,-0.00151626 0.00637483,-0.00501345 0.00637483,-0.0104753 0,-0.00850249 -0.00303253,-0.0162468 -0.00910573,-0.0232249 -0.00607321,-0.00698622 -0.012448,-0.0129045 -0.0191326,-0.0177631 -0.0176082,-0.0121464 -0.0356729,-0.0235347 -0.0541942,-0.0341567 -0.0185212,-0.0106301 -0.0371974,-0.0211054 -0.0560202,-0.0314258 -0.011535,-0.00667645 -0.0229233,-0.0130594 -0.0341567,-0.0191245 -0.0112334,-0.00607321 -0.0229233,-0.0115432 -0.0350697,-0.0164017 0.0291514,-0.0279286 0.0584495,-0.0555637 0.0879025,-0.0828891 0.029453,-0.0273253 0.0599658,-0.0537377 0.0915383,-0.0792451 0.00485856,-0.00424717 0.0101736,-0.00925247 0.0159452,-0.015024 0.00576343,-0.00577158 0.00864922,-0.0119915 0.00864922,-0.0186761 0,-0.00485856 -0.00197277,-0.00956224 -0.00591832,-0.0141192 -0.00394555,-0.00454879 -0.0083476,-0.00683134 -0.0132062,-0.00683134 -0.00607321,0 -0.0119997,0.00273906 -0.0177631,0.00820086 -0.00577158,0.00546181 -0.0107769,0.0100188 -0.0150322,0.0136627 -0.0279286,0.0267221 -0.0558653,0.0528328 -0.0837939,0.0783321 -0.0279367,0.0255075 -0.0552621,0.0522214 -0.0819842,0.0801582 0.00607321,-0.0534361 0.0138176,-0.106114 0.0232331,-0.158034 0.00940735,-0.0519198 0.0201842,-0.103994 0.0323306,-0.156216 0.00546996,-0.02307 0.0110867,-0.0463031 0.0168501,-0.0696747 0.00577158,-0.0233798 0.0129045,-0.0466047 0.021407,-0.0696829 0.00242928,-0.00667645 0.00455694,-0.0133611 0.00637483,-0.0200375 0.00182604,-0.0066846 0.0027309,-0.0133611 0.0027309,-0.0200375 0,-0.0164017 -0.00758947,-0.0245944 -0.0227684,-0.0245944 -0.0212521,0 -0.0376457,0.00697807 -0.0491889,0.0209505 -0.011535,0.0139643 -0.0200375,0.0300563 -0.0254993,0.0482759 -0.0121464,0.040075 -0.0220103,0.0807614 -0.0296079,0.122051 -0.00758947,0.0412896 -0.0147224,0.0825874 -0.0213989,0.123877 -0.00850249,0.0552621 -0.0151871,0.110516 -0.0200457,0.165778 -0.00485041,0.0552539 -0.00727969,0.110818 -0.00727969,0.166683 0,0.0121464 0,0.0255075 0,0.0400832 0,0.0145675 0.000301622,0.0291432 0.000904867,0.0437189 0.000611396,0.0145757 0.00136953,0.0289965 0.00228255,0.0432624 0.000904867,0.0142741 0.00257602,0.0271786 0.0050053,0.0387136 0.00121464,0.00667645 0.00349719,0.0126029 0.00683134,0.0177631 0.0033423,0.00516019 0.008959,0.00774436 0.0168501,0.00774436 0.00546996,0 0.00987202,-0.00152442 0.0132062,-0.00455694 0.0033423,-0.00303253 0.00577158,-0.00667645 0.00728785,-0.0109318 0.00152442,-0.00424717 0.00242928,-0.00880411 0.00273906,-0.0136627 0.000301622,-0.00485856 0.000448357,-0.00940735 0.000448357,-0.0136627 0,-0.0139643 0.000611396,-0.027627 0.00182604,-0.040988 0.00121464,-0.0133611 0.00242928,-0.0270237 0.00364392,-0.040988 0.00121464,-0.0176082 0.00257602,-0.0349148 0.00410043,-0.0519198 0.00151626,-0.017005 0.00379066,-0.0340018 0.00683134,-0.0510068z"/>
 </g>
</svg>
